  0
SECTION
  2
HEADER
  9
$ACADVER
  1
AC1015
  9
$DWGCODEPAGE
  3
ansi_1252
  9
$INSBASE
 10
0
 20
0
 30
0
  9
$EXTMIN
 10
-4100
 20
-2500
 30
0
  9
$EXTMAX
 10
16000
 20
21797.808758147308
 30
0
  9
$LIMMIN
 10
0
 20
0
  9
$LIMMAX
 10
12
 20
9
  9
$SNAPMODE
 70
0
  9
$SNAPUNIT
 10
1
 20
1
  9
$SNAPBASE
 10
0
 20
0
  9
$SNAPANG
 50
0
  9
$SNAPSTYLE
 70
0
  9
$SNAPISOPAIR
 70
0
  9
$ORTHOMODE
 70
0
  9
$REGENMODE
 70
1
  9
$FILLMODE
 70
1
  9
$QTEXTMODE
 70
0
  9
$MIRRTEXT
 70
1
  9
$LTSCALE
 40
1000
  9
$OSMODE
 70
0
  9
$ATTMODE
 70
1
  9
$TEXTSIZE
 40
0.2
  9
$TRACEWID
 40
0.05
  9
$TEXTSTYLE
  7
Standard
  9
$CLAYER
  8
0
  9
$CELTYPE
  6
ByLayer
  9
$CECOLOR
 62
256
  9
$CELTSCALE
 40
1
  9
$DISPSILH
 70
0
  9
$DIMSCALE
 40
1
  9
$DIMASZ
 40
0.18
  9
$DIMEXO
 40
0.0625
  9
$DIMDLI
 40
0.38
  9
$DIMRND
 40
0
  9
$DIMDLE
 40
0
  9
$DIMEXE
 40
0.18
  9
$DIMTP
 40
0
  9
$DIMTM
 40
0
  9
$DIMTXT
 40
0.18
  9
$DIMCEN
 40
0.09
  9
$DIMTSZ
 40
0
  9
$DIMTOL
 70
0
  9
$DIMLIM
 70
0
  9
$DIMTIH
 70
1
  9
$DIMTOH
 70
1
  9
$DIMSE1
 70
0
  9
$DIMSE2
 70
0
  9
$DIMTAD
 70
0
  9
$DIMZIN
 70
0
  9
$DIMBLK
  1

  9
$DIMASO
 70
1
  9
$DIMSHO
 70
1
  9
$DIMPOST
  1

  9
$DIMAPOST
  1

  9
$DIMALT
 70
0
  9
$DIMALTD
 70
2
  9
$DIMALTF
 40
1
  9
$DIMLFAC
 40
1
  9
$DIMTOFL
 70
0
  9
$DIMTVP
 40
0
  9
$DIMTIX
 70
0
  9
$DIMSOXD
 70
0
  9
$DIMSAH
 70
0
  9
$DIMBLK1
  1

  9
$DIMBLK2
  1

  9
$DIMSTYLE
  2
Standard
  9
$DIMCLRD
 70
0
  9
$DIMCLRE
 70
0
  9
$DIMCLRT
 70
0
  9
$DIMTFAC
 40
1
  9
$DIMGAP
 40
0.09
  9
$DIMJUST
 70
0
  9
$DIMSD1
 70
0
  9
$DIMSD2
 70
0
  9
$DIMTOLJ
 70
1
  9
$DIMTZIN
 70
0
  9
$DIMALTZ
 70
0
  9
$DIMALTTZ
 70
0
  9
$DIMUPT
 70
0
  9
$DIMDEC
 70
4
  9
$DIMTDEC
 70
4
  9
$DIMALTU
 70
2
  9
$DIMALTTD
 70
0
  9
$DIMTXSTY
  7
Standard
  9
$DIMAUNIT
 70
0
  9
$DIMADEC
 70
0
  9
$DIMALTRND
 40
0
  9
$DIMAZIN
 70
0
  9
$DIMDSEP
 70
46
  9
$DIMATFIT
 70
3
  9
$DIMFRAC
 70
0
  9
$DIMLDRBLK
  1

  9
$DIMLUNIT
 70
2
  9
$DIMLWD
 70
-2
  9
$DIMLWE
 70
-2
  9
$LUNITS
 70
2
  9
$LUPREC
 70
4
  9
$SKETCHINC
 40
0.1
  9
$FILLETRAD
 40
0
  9
$AUNITS
 70
0
  9
$AUPREC
 70
0
  9
$MENU
  1
.
  9
$ELEVATION
 40
0
  9
$PELEVATION
 40
0
  9
$THICKNESS
 40
0
  9
$LIMCHECK
 70
0
  9
$CHAMFERA
 40
0.5
  9
$CHAMFERB
 40
0.5
  9
$CHAMFERC
 40
0
  9
$CHAMFERD
 40
0
  9
$SKPOLY
 70
0
  9
$TDCREATE
 40
2461290.4510605093
  9
$TDUCREATE
 40
2461290.2218938428
  9
$TDUPDATE
 40
2461290.4510605093
  9
$TDUUPDATE
 40
2461290.2218938428
  9
$TDINDWG
 40
0
  9
$TDUSRTIMER
 40
1.1574074074074074E-08
  9
$USRTIMER
 70
1
  9
$ANGBASE
 50
0
  9
$ANGDIR
 70
1
  9
$PDMODE
 70
0
  9
$PDSIZE
 40
0
  9
$PLINEWID
 40
0
  9
$SPLFRAME
 70
0
  9
$SPLINETYPE
 70
6
  9
$SPLINESEGS
 70
8
  9
$HANDSEED
  5
27E
  9
$SURFTAB1
 70
6
  9
$SURFTAB2
 70
6
  9
$SURFTYPE
 70
6
  9
$SURFU
 70
6
  9
$SURFV
 70
6
  9
$UCSORG
 10
0
 20
0
 30
0
  9
$UCSXDIR
 10
1
 20
0
 30
0
  9
$UCSYDIR
 10
0
 20
1
 30
0
  9
$UCSORTHOREF
  2

  9
$UCSORTHOVIEW
 70
0
  9
$UCSORGTOP
 10
0
 20
0
 30
0
  9
$UCSORGBOTTOM
 10
0
 20
0
 30
0
  9
$UCSORGLEFT
 10
0
 20
0
 30
0
  9
$UCSORGRIGHT
 10
0
 20
0
 30
0
  9
$UCSORGFRONT
 10
0
 20
0
 30
0
  9
$UCSORGBACK
 10
0
 20
0
 30
0
  9
$PUCSORG
 10
0
 20
0
 30
0
  9
$PUCSXDIR
 10
1
 20
0
 30
0
  9
$PUCSYDIR
 10
0
 20
1
 30
0
  9
$PUCSORTHOREF
  2

  9
$PUCSORTHOVIEW
 70
0
  9
$PUCSORGTOP
 10
0
 20
0
 30
0
  9
$PUCSORGBOTTOM
 10
0
 20
0
 30
0
  9
$PUCSORGLEFT
 10
0
 20
0
 30
0
  9
$PUCSORGRIGHT
 10
0
 20
0
 30
0
  9
$PUCSORGFRONT
 10
0
 20
0
 30
0
  9
$PUCSORGBACK
 10
0
 20
0
 30
0
  9
$USERI1
 70
0
  9
$USERI2
 70
0
  9
$USERI3
 70
0
  9
$USERI4
 70
0
  9
$USERI5
 70
0
  9
$USERR1
 40
0
  9
$USERR2
 40
0
  9
$USERR3
 40
0
  9
$USERR4
 40
0
  9
$USERR5
 40
0
  9
$WORLDVIEW
 70
1
  9
$SHADEDGE
 70
3
  9
$SHADEDIF
 70
70
  9
$TILEMODE
 70
1
  9
$MAXACTVP
 70
48
  9
$PINSBASE
 10
0
 20
0
 30
0
  9
$PLIMCHECK
 70
0
  9
$PEXTMIN
 10
1E+20
 20
1E+20
 30
1E+20
  9
$PEXTMAX
 10
-1E+20
 20
-1E+20
 30
-1E+20
  9
$PLIMMAX
 10
0
 20
0
  9
$PLIMMIN
 10
0
 20
0
  9
$UNITMODE
 70
0
  9
$VISRETAIN
 70
1
  9
$PLINEGEN
 70
1
  9
$PSLTSCALE
 70
1
  9
$TREEDEPTH
 70
3020
  9
$CMLSTYLE
  2
STANDARD
  9
$CMLJUST
 70
0
  9
$CMLSCALE
 40
1
  9
$PROXYGRAPHICS
 70
1
  9
$MEASUREMENT
 70
0
  9
$CELWEIGHT
370
-1
  9
$ENDCAPS
280
0
  9
$JOINSTYLE
280
0
  9
$LWDISPLAY
290
1
  9
$INSUNITS
 70
1
  9
$HYPERLINKBASE
  1

  9
$XEDIT
290
1
  9
$CEPSNTYPE
380
0
  9
$PSTYLEMODE
290
1
  9
$FINGERPRINTGUID
  2

  9
$VERSIONGUID
  2

  9
$EXTNAMES
290
1
  9
$PSVPSCALE
 40
0
  9
$CSHADOW
280
0
  9
$SHADOWPLANELOCATION
 40
0
  0
ENDSEC
  0
SECTION
  2
CLASSES
  0
CLASS
  1
RASTERVARIABLES
  2
AcDbRasterVariables
  3
ISM
 90
0
280
0
281
0
  0
CLASS
  1
IMAGEDEF
  2
AcDbRasterImageDef
  3
ISM
 90
0
280
0
281
0
  0
CLASS
  1
IMAGEDEF_REACTOR
  2
AcDbRasterImageDefReactor
  3
ISM
 90
1
280
0
281
0
  0
CLASS
  1
IMAGE
  2
AcDbRasterImage
  3
ISM
 90
127
280
0
281
1
  0
CLASS
  1
ACAD_EVALUATION_GRAPH
  2
AcDbEvalGraph
  3
ObjectDBX Classes
 90
1153
280
0
281
0
  0
CLASS
  1
BLOCKPOINTPARAMETER
  2
AcDbBlockPointParameter
  3
ObjectDBX Classes
 90
1153
280
0
281
0
  0
CLASS
  1
BLOCKBASEPOINTPARAMETER
  2
AcDbBlockBasepointParameter
  3
ObjectDBX Classes
 90
1153
280
0
281
0
  0
CLASS
  1
BLOCKLOOKUPPARAMETER
  2
AcDbBlockLookupParameter
  3
ObjectDBX Classes
 90
1153
280
0
281
0
  0
CLASS
  1
BLOCKVISIBILITYPARAMETER
  2
AcDbBlockVisibilityParameter
  3
ObjectDBX Classes
 90
1153
280
0
281
0
  0
CLASS
  1
BLOCKPROPERTIESTABLE
  2
AcDbBlockPropertiesTable
  3
ObjectDBX Classes
 90
1153
280
0
281
0
  0
CLASS
  1
BLOCKPOLARPARAMETER
  2
AcDbBlockPolarParameter
  3
ObjectDBX Classes
 90
1153
280
0
281
0
  0
CLASS
  1
BLOCKROTATIONPARAMETER
  2
AcDbBlockRotationParameter
  3
ObjectDBX Classes
 90
1153
280
0
281
0
  0
CLASS
  1
BLOCKLINEARPARAMETER
  2
AcDbBlockLinearParameter
  3
ObjectDBX Classes
 90
1153
280
0
281
0
  0
CLASS
  1
BLOCKXYPARAMETER
  2
AcDbBlockXYParameter
  3
ObjectDBX Classes
 90
1153
280
0
281
0
  0
CLASS
  1
BLOCKFLIPPARAMETER
  2
AcDbBlockFlipParameter
  3
ObjectDBX Classes
 90
1153
280
0
281
0
  0
CLASS
  1
BLOCKALIGNMENTPARAMETER
  2
AcDbBlockAlignmentParameter
  3
ObjectDBX Classes
 90
1153
280
0
281
0
  0
CLASS
  1
BLOCKROTATEACTION
  2
AcDbBlockRotateAction
  3
ObjectDBX Classes
 90
1153
280
0
281
0
  0
CLASS
  1
BLOCKSCALEACTION
  2
AcDbBlockScaleAction
  3
ObjectDBX Classes
 90
1153
280
0
281
0
  0
CLASS
  1
BLOCKARRAYACTION
  2
AcDbBlockArrayAction
  3
ObjectDBX Classes
 90
1153
280
0
281
0
  0
CLASS
  1
BLOCKFLIPACTION
  2
AcDbBlockFlipAction
  3
ObjectDBX Classes
 90
1153
280
0
281
0
  0
CLASS
  1
BLOCKLOOKUPACTION
  2
AcDbBlockLookupAction
  3
ObjectDBX Classes
 90
1153
280
0
281
0
  0
CLASS
  1
BLOCKMOVEACTION
  2
AcDbBlockMoveAction
  3
ObjectDBX Classes
 90
1153
280
0
281
0
  0
CLASS
  1
BLOCKPOLARSTRETCHACTION
  2
AcDbBlockPolarStretchAction
  3
ObjectDBX Classes
 90
1153
280
0
281
0
  0
CLASS
  1
BLOCKSTRETCHACTION
  2
AcDbBlockStretchAction
  3
ObjectDBX Classes
 90
1153
280
0
281
0
  0
CLASS
  1
BLOCKALIGNMENTGRIP
  2
AcDbBlockAlignmentGrip
  3
ObjectDBX Classes
 90
1153
280
0
281
0
  0
CLASS
  1
BLOCKFLIPGRIP
  2
AcDbBlockFlipGrip
  3
ObjectDBX Classes
 90
1153
280
0
281
0
  0
CLASS
  1
ACDB_BLOCKREPRESENTATION_DATA
  2
AcDbBlockRepresentationData
  3
ObjectDBX Classes
 90
1153
280
0
281
0
  0
CLASS
  1
ACDB_DYNAMICBLOCKPURGEPREVENTER_VERSION
  2
AcDbDynamicBlockPurgePreventer
  3
ObjectDBX Classes
 90
1153
280
0
281
0
  0
CLASS
  1
BLOCKLINEARGRIP
  2
AcDbBlockLinearGrip
  3
ObjectDBX Classes
 90
1153
280
0
281
0
  0
CLASS
  1
BLOCKLOOKUPGRIP
  2
AcDbBlockLookupGrip
  3
ObjectDBX Classes
 90
1153
280
0
281
0
  0
CLASS
  1
BLOCKPOLARGRIP
  2
AcDbBlockPolarGrip
  3
ObjectDBX Classes
 90
1153
280
0
281
0
  0
CLASS
  1
BLOCKPROPERTIESTABLEGRIP
  2
AcDbBlockPropertiesTableGrip
  3
ObjectDBX Classes
 90
1153
280
0
281
0
  0
CLASS
  1
BLOCKROTATIONGRIP
  2
AcDbBlockRotationGrip
  3
ObjectDBX Classes
 90
1153
280
0
281
0
  0
CLASS
  1
BLOCKVISIBILITYGRIP
  2
AcDbBlockVisibilityGrip
  3
ObjectDBX Classes
 90
1153
280
0
281
0
  0
CLASS
  1
BLOCKXYGRIP
  2
AcDbBlockXYGrip
  3
ObjectDBX Classes
 90
1153
280
0
281
0
  0
CLASS
  1
BLOCKGRIPLOCATIONCOMPONENT
  2
AcDbBlockGripExpr
  3
ObjectDBX Classes
 90
1153
280
0
281
0
  0
CLASS
  1
ACDB_DYNAMICBLOCKPROXYNODE
  2
AcDbDynamicBlockProxyNode
  3
ObjectDBX Classes
 90
1153
280
0
281
0
  0
CLASS
  1
BLOCKLINEARCONSTRAINTPARAMETER
  2
AcDbBlockLinearConstraintParameter
  3
ObjectDBX Classes
 90
1153
280
0
281
0
  0
CLASS
  1
BLOCKHORIZONTALCONSTRAINTPARAMETER
  2
AcDbBlockHorizontalConstraintParameter
  3
ObjectDBX Classes
 90
1153
280
0
281
0
  0
CLASS
  1
BLOCKVERTICALCONSTRAINTPARAMETER
  2
AcDbBlockVerticalConstraintParameter
  3
ObjectDBX Classes
 90
1153
280
0
281
0
  0
CLASS
  1
BLOCKALIGNEDCONSTRAINTPARAMETER
  2
AcDbBlockAlignedConstraintParameter
  3
ObjectDBX Classes
 90
1153
280
0
281
0
  0
CLASS
  1
BLOCKANGULARCONSTRAINTPARAMETER
  2
AcDbBlockAngularConstraintParameter
  3
ObjectDBX Classes
 90
1153
280
0
281
0
  0
CLASS
  1
BLOCKDIAMETRICCONSTRAINTPARAMETER
  2
AcDbBlockDiametricConstraintParameter
  3
ObjectDBX Classes
 90
1153
280
0
281
0
  0
CLASS
  1
BLOCKRADIALCONSTRAINTPARAMETER
  2
AcDbBlockRadialConstraintParameter
  3
ObjectDBX Classes
 90
1153
280
0
281
0
  0
ENDSEC
  0
SECTION
  2
TABLES
  0
TABLE
  2
VPORT
  5
8
330
0
100
AcDbSymbolTable
 70
1
  0
VPORT
  5
257
330
8
100
AcDbSymbolTableRecord
100
AcDbViewportTableRecord
  2
*Active
 70
64
 10
0
 20
0
 11
1
 21
1
 12
5950
 22
9648.9043790736541
 13
0
 23
0
 14
1
 24
1
 15
0
 25
0
 16
0
 26
0
 36
1
 17
0
 27
0
 37
0
 40
24297.808758147308
 41
0.82723508938888413
 42
50
 43
0
 44
0
 50
0
 51
0
 71
0
 72
1000
 73
0
 74
1
 75
0
 76
0
 77
0
 78
0
281
0
 65
1
110
0
120
0
130
0
111
1
121
0
131
0
112
0
122
1
132
0
 79
0
146
0
  0
ENDTAB
  0
TABLE
  2
LTYPE
  5
5
100
AcDbSymbolTable
 70
6
  0
LTYPE
  5
16
330
5
100
AcDbSymbolTableRecord
100
AcDbLinetypeTableRecord
  2
Continuous
  3
Solid line
 70
64
 72
65
 73
0
 40
0
  0
LTYPE
  5
14
330
5
100
AcDbSymbolTableRecord
100
AcDbLinetypeTableRecord
  2
ByBlock
  3

 70
64
 72
65
 73
0
 40
0
  0
LTYPE
  5
15
330
5
100
AcDbSymbolTableRecord
100
AcDbLinetypeTableRecord
  2
ByLayer
  3

 70
64
 72
65
 73
0
 40
0
  0
LTYPE
  5
251
330
5
100
AcDbSymbolTableRecord
100
AcDbLinetypeTableRecord
  2
SCHidden
  3
description
 70
64
 72
65
 73
2
 40
0.375
 49
0.25
 74
0
 49
-0.125
 74
0
  0
LTYPE
  5
252
330
5
100
AcDbSymbolTableRecord
100
AcDbLinetypeTableRecord
  2
SCCenter
  3
description
 70
64
 72
65
 73
4
 40
1.2
 49
0.5
 74
0
 49
-0.3
 74
0
 49
0.1
 74
0
 49
-0.3
 74
0
  0
LTYPE
  5
253
330
5
100
AcDbSymbolTableRecord
100
AcDbLinetypeTableRecord
  2
SCDotted
  3
description
 70
64
 72
65
 73
4
 40
0.6
 49
0.2
 74
0
 49
-0.1
 74
0
 49
0.2
 74
0
 49
-0.1
 74
0
  0
ENDTAB
  0
TABLE
  2
LAYER
  5
2
100
AcDbSymbolTable
 70
46
  0
LAYER
  5
10
330
2
100
AcDbSymbolTableRecord
100
AcDbLayerTableRecord
 70
64
  2
0
 62
7
  6
Continuous
370
-3
390
F
  0
LAYER
  5
27
330
2
100
AcDbSymbolTableRecord
100
AcDbLayerTableRecord
 70
64
  2
Slab
 62
251
  6
Continuous
370
-3
390
F
  0
LAYER
  5
28
330
2
100
AcDbSymbolTableRecord
100
AcDbLayerTableRecord
 70
64
  2
Beam
 62
3
  6
Continuous
370
-3
390
F
  0
LAYER
  5
29
330
2
100
AcDbSymbolTableRecord
100
AcDbLayerTableRecord
 70
64
  2
Column
 62
2
  6
Continuous
370
-3
390
F
  0
LAYER
  5
2A
330
2
100
AcDbSymbolTableRecord
100
AcDbLayerTableRecord
 70
64
  2
Lateral Column
 62
30
  6
Continuous
370
-3
390
F
  0
LAYER
  5
2B
330
2
100
AcDbSymbolTableRecord
100
AcDbLayerTableRecord
 70
64
  2
Gravity Column
 62
40
  6
Continuous
370
-3
390
F
  0
LAYER
  5
2C
330
2
100
AcDbSymbolTableRecord
100
AcDbLayerTableRecord
 70
64
  2
Footing
 62
4
  6
Continuous
370
-3
390
F
  0
LAYER
  5
2D
330
2
100
AcDbSymbolTableRecord
100
AcDbLayerTableRecord
 70
64
  2
Middle Strip
 62
1
  6
Continuous
370
-3
390
F
  0
LAYER
  5
2E
330
2
100
AcDbSymbolTableRecord
100
AcDbLayerTableRecord
 70
64
  2
Column Strip
 62
8
  6
Continuous
370
-3
390
F
  0
LAYER
  5
2F
330
2
100
AcDbSymbolTableRecord
100
AcDbLayerTableRecord
 70
64
  2
Drop Pannel
 62
5
  6
Continuous
370
-3
390
F
  0
LAYER
  5
30
330
2
100
AcDbSymbolTableRecord
100
AcDbLayerTableRecord
 70
64
  2
Cut out
 62
250
  6
Continuous
370
-3
390
F
  0
LAYER
  5
31
330
2
100
AcDbSymbolTableRecord
100
AcDbLayerTableRecord
 70
64
  2
Staircase
 62
31
  6
Continuous
370
-3
390
F
  0
LAYER
  5
32
330
2
100
AcDbSymbolTableRecord
100
AcDbLayerTableRecord
 70
64
  2
Slab Mark
 62
141
  6
Continuous
370
-3
390
F
  0
LAYER
  5
33
330
2
100
AcDbSymbolTableRecord
100
AcDbLayerTableRecord
 70
64
  2
Slab Nos
 62
7
  6
Continuous
370
-3
390
F
  0
LAYER
  5
34
330
2
100
AcDbSymbolTableRecord
100
AcDbLayerTableRecord
 70
64
  2
Beam Nos
 62
7
  6
Continuous
370
-3
390
F
  0
LAYER
  5
35
330
2
100
AcDbSymbolTableRecord
100
AcDbLayerTableRecord
 70
64
  2
Column Nos
 62
7
  6
Continuous
370
-3
390
F
  0
LAYER
  5
36
330
2
100
AcDbSymbolTableRecord
100
AcDbLayerTableRecord
 70
64
  2
Footing Nos
 62
4
  6
Continuous
370
-3
390
F
  0
LAYER
  5
37
330
2
100
AcDbSymbolTableRecord
100
AcDbLayerTableRecord
 70
64
  2
MS nos
 62
7
  6
Continuous
370
-3
390
F
  0
LAYER
  5
38
330
2
100
AcDbSymbolTableRecord
100
AcDbLayerTableRecord
 70
64
  2
CS nos
 62
7
  6
Continuous
370
-3
390
F
  0
LAYER
  5
39
330
2
100
AcDbSymbolTableRecord
100
AcDbLayerTableRecord
 70
64
  2
DP nos
 62
7
  6
Continuous
370
-3
390
F
  0
LAYER
  5
3A
330
2
100
AcDbSymbolTableRecord
100
AcDbLayerTableRecord
 70
64
  2
Plan Reinforcement
 62
4
  6
Continuous
370
-3
390
F
  0
LAYER
  5
3B
330
2
100
AcDbSymbolTableRecord
100
AcDbLayerTableRecord
 70
64
  2
Sxn Reinforcement
 62
4
  6
Continuous
370
-3
390
F
  0
LAYER
  5
3C
330
2
100
AcDbSymbolTableRecord
100
AcDbLayerTableRecord
 70
64
  2
ColumnLine
 62
6
  6
Continuous
370
-3
390
F
  0
LAYER
  5
3D
330
2
100
AcDbSymbolTableRecord
100
AcDbLayerTableRecord
 70
64
  2
PCC
 62
5
  6
Continuous
370
-3
390
F
  0
LAYER
  5
3E
330
2
100
AcDbSymbolTableRecord
100
AcDbLayerTableRecord
 70
64
  2
Text
 62
31
  6
Continuous
370
-3
390
F
  0
LAYER
  5
3F
330
2
100
AcDbSymbolTableRecord
100
AcDbLayerTableRecord
 70
64
  2
Label
 62
4
  6
Continuous
370
-3
390
F
  0
LAYER
  5
40
330
2
100
AcDbSymbolTableRecord
100
AcDbLayerTableRecord
 70
64
  2
Label Text
 62
31
  6
Continuous
370
-3
390
F
  0
LAYER
  5
41
330
2
100
AcDbSymbolTableRecord
100
AcDbLayerTableRecord
 70
64
  2
Schedule Text
 62
31
  6
Continuous
370
-3
390
F
  0
LAYER
  5
42
330
2
100
AcDbSymbolTableRecord
100
AcDbLayerTableRecord
 70
64
  2
Schedule Header
 62
4
  6
Continuous
370
-3
390
F
  0
LAYER
  5
43
330
2
100
AcDbSymbolTableRecord
100
AcDbLayerTableRecord
 70
64
  2
Hatch
 62
25
  6
Continuous
370
-3
390
F
  0
LAYER
  5
44
330
2
100
AcDbSymbolTableRecord
100
AcDbLayerTableRecord
 70
64
  2
Links
 62
225
  6
Continuous
370
-3
390
F
  0
LAYER
  5
45
330
2
100
AcDbSymbolTableRecord
100
AcDbLayerTableRecord
 70
64
  2
Section Mark
 62
5
  6
Continuous
370
-3
390
F
  0
LAYER
  5
46
330
2
100
AcDbSymbolTableRecord
100
AcDbLayerTableRecord
 70
64
  2
Grid Line
 62
8
  6
Continuous
370
-3
390
F
  0
LAYER
  5
47
330
2
100
AcDbSymbolTableRecord
100
AcDbLayerTableRecord
 70
64
  2
Center Line
 62
1
  6
Continuous
370
-3
390
F
  0
LAYER
  5
48
330
2
100
AcDbSymbolTableRecord
100
AcDbLayerTableRecord
 70
64
  2
Schedule Border
 62
4
  6
Continuous
370
-3
390
F
  0
LAYER
  5
49
330
2
100
AcDbSymbolTableRecord
100
AcDbLayerTableRecord
 70
64
  2
Schedule Line
 62
60
  6
Continuous
370
-3
390
F
  0
LAYER
  5
4A
330
2
100
AcDbSymbolTableRecord
100
AcDbLayerTableRecord
 70
64
  2
Dimension
 62
31
  6
Continuous
370
-3
390
F
  0
LAYER
  5
4B
330
2
100
AcDbSymbolTableRecord
100
AcDbLayerTableRecord
 70
64
  2
Plan Pile
 62
3
  6
Continuous
370
-3
390
F
  0
LAYER
  5
4C
330
2
100
AcDbSymbolTableRecord
100
AcDbLayerTableRecord
 70
64
  2
Plan Pilecap
 62
4
  6
Continuous
370
-3
390
F
  0
LAYER
  5
4D
330
2
100
AcDbSymbolTableRecord
100
AcDbLayerTableRecord
 70
64
  2
Pile Mark
 62
1
  6
Continuous
370
-3
390
F
  0
LAYER
  5
4E
330
2
100
AcDbSymbolTableRecord
100
AcDbLayerTableRecord
 70
64
  2
Pilecap Mark
 62
7
  6
Continuous
370
-3
390
F
  0
LAYER
  5
4F
330
2
100
AcDbSymbolTableRecord
100
AcDbLayerTableRecord
 70
64
  2
Surface 1
 62
3
  6
Continuous
370
-3
390
F
  0
LAYER
  5
50
330
2
100
AcDbSymbolTableRecord
100
AcDbLayerTableRecord
 70
64
  2
Surface 2
 62
6
  6
Continuous
370
-3
390
F
  0
LAYER
  5
51
330
2
100
AcDbSymbolTableRecord
100
AcDbLayerTableRecord
 70
64
  2
Defpoints
 62
7
  6
Continuous
290
0
370
-3
390
F
  0
LAYER
  5
52
330
2
100
AcDbSymbolTableRecord
100
AcDbLayerTableRecord
 70
64
  2
IgnoreElementLayer
 62
251
  6
Continuous
370
-3
390
F
  0
LAYER
  5
53
330
2
100
AcDbSymbolTableRecord
100
AcDbLayerTableRecord
 70
64
  2
FlangeMark
 62
4
  6
Continuous
370
-3
390
F
  0
ENDTAB
  0
TABLE
  2
STYLE
  5
3
100
AcDbSymbolTable
 70
3
  0
STYLE
  5
11
330
3
100
AcDbSymbolTableRecord
100
AcDbTextStyleTableRecord
  2
Standard
 70
64
 40
0
 41
1
 50
0
 71
0
 42
0.2
  3
txt.shx
  0
STYLE
  5
24F
330
3
100
AcDbSymbolTableRecord
100
AcDbTextStyleTableRecord
  2
SC-BBS1
 70
64
 40
0
 41
1
 50
0
 71
0
 42
0.2
  3
SansSerif
  0
STYLE
  5
250
330
3
100
AcDbSymbolTableRecord
100
AcDbTextStyleTableRecord
  2
SC-BBS2
 70
64
 40
0
 41
1
 50
0
 71
0
 42
0.2
  3
SansSerif
  0
ENDTAB
  0
TABLE
  2
VIEW
  5
6
100
AcDbSymbolTable
 70
0
  0
ENDTAB
  0
TABLE
  2
UCS
  5
7
100
AcDbSymbolTable
 70
0
  0
ENDTAB
  0
TABLE
  2
APPID
  5
9
330
0
100
AcDbSymbolTable
 70
2
  0
APPID
  5
12
330
9
100
AcDbSymbolTableRecord
100
AcDbRegAppTableRecord
  2
ACAD
 70
64
  0
APPID
  5
27C
330
9
100
AcDbSymbolTableRecord
100
AcDbRegAppTableRecord
  2
ACAD_MLEADERVER
 70
64
  0
ENDTAB
  0
TABLE
  2
DIMSTYLE
  5
A
330
0
100
AcDbSymbolTable
 70
3
100
AcDbDimStyleTable
 71
0
  0
DIMSTYLE
105
254
330
A
100
AcDbSymbolTableRecord
100
AcDbDimStyleTableRecord
  2
Standard
 70
64
  3

  4

 40
1
 41
0.18
 42
0.0625
 43
0.38
 44
0.18
 45
0
 46
0
 47
0
 48
0
140
0.18
141
0.09
142
0
143
1
144
1
145
0
146
1
147
0.09
148
0
 71
0
 72
0
 73
1
 74
1
 75
0
 76
0
 77
0
 78
0
 79
0
170
0
171
2
172
0
173
0
174
0
175
0
179
0
271
4
272
4
273
2
274
0
275
0
276
0
277
2
278
46
279
0
280
0
281
0
282
0
283
1
284
0
285
0
286
0
288
0
289
3
340
11
371
-2
372
-2
  0
DIMSTYLE
105
255
330
A
100
AcDbSymbolTableRecord
100
AcDbDimStyleTableRecord
  2
SCDim
 70
64
  3

  4

 40
1
 41
200
 42
75
 43
0.38
 44
75
 45
0
 46
0
 47
0
 48
0
140
200
141
0.09
142
0
143
1
144
1
145
0
146
1
147
50
148
0
 71
0
 72
0
 73
0
 74
1
 75
0
 76
0
 77
1
 78
0
 79
0
170
0
171
2
172
0
173
0
174
1
175
0
176
8
177
8
178
31
179
0
271
0
272
0
273
2
274
0
275
0
276
0
277
2
278
46
279
0
280
0
281
0
282
0
283
1
284
0
285
0
286
0
288
0
289
3
340
250
371
-2
372
-2
  0
DIMSTYLE
105
256
330
A
100
AcDbSymbolTableRecord
100
AcDbDimStyleTableRecord
  2
SCGridlineDim
 70
64
  3

  4

 40
1
 41
0.18
 42
75
 43
0.38
 44
75
 45
0
 46
0
 47
0
 48
0
140
200
141
0.09
142
200
143
1
144
1
145
0
146
1
147
50
148
0
 71
0
 72
0
 73
0
 74
1
 75
0
 76
0
 77
1
 78
0
 79
0
170
0
171
2
172
0
173
0
174
1
175
0
176
8
177
8
178
31
179
0
271
0
272
0
273
2
274
0
275
0
276
0
277
2
278
46
279
0
280
0
281
0
282
0
283
1
284
0
285
0
286
0
288
0
289
3
340
250
371
-2
372
-2
  0
ENDTAB
  0
TABLE
  2
BLOCK_RECORD
  5
1
330
0
100
AcDbSymbolTable
 70
3
  0
BLOCK_RECORD
  5
1F
330
1
100
AcDbSymbolTableRecord
100
AcDbBlockTableRecord
  2
*Model_Space
340
22
  0
BLOCK_RECORD
  5
1E0
330
1
100
AcDbSymbolTableRecord
100
AcDbBlockTableRecord
  2
*Paper_Space
340
1E
  0
BLOCK_RECORD
  5
1E3
330
1
100
AcDbSymbolTableRecord
100
AcDbBlockTableRecord
  2
*D0
  0
BLOCK_RECORD
  5
1EF
330
1
100
AcDbSymbolTableRecord
100
AcDbBlockTableRecord
  2
*D1
  0
BLOCK_RECORD
  5
1FB
330
1
100
AcDbSymbolTableRecord
100
AcDbBlockTableRecord
  2
*D2
  0
BLOCK_RECORD
  5
207
330
1
100
AcDbSymbolTableRecord
100
AcDbBlockTableRecord
  2
*D3
  0
BLOCK_RECORD
  5
213
330
1
100
AcDbSymbolTableRecord
100
AcDbBlockTableRecord
  2
*D4
  0
BLOCK_RECORD
  5
21F
330
1
100
AcDbSymbolTableRecord
100
AcDbBlockTableRecord
  2
*D5
  0
BLOCK_RECORD
  5
22B
330
1
100
AcDbSymbolTableRecord
100
AcDbBlockTableRecord
  2
*D6
  0
BLOCK_RECORD
  5
237
330
1
100
AcDbSymbolTableRecord
100
AcDbBlockTableRecord
  2
*D7
  0
BLOCK_RECORD
  5
243
330
1
100
AcDbSymbolTableRecord
100
AcDbBlockTableRecord
  2
*D8
  0
ENDTAB
  0
ENDSEC
  0
SECTION
  2
BLOCKS
  0
BLOCK
  5
20
330
1F
100
AcDbEntity
  8
0
100
AcDbBlockBegin
  2
*Model_Space
 70
64
 10
0
 20
0
 30
0
  3
*Model_Space
  0
ENDBLK
  5
21
330
1F
100
AcDbEntity
  8
0
100
AcDbBlockEnd
  0
BLOCK
  5
1E1
330
1E0
100
AcDbEntity
  8
0
 67
1
100
AcDbBlockBegin
  2
*Paper_Space
 70
64
 10
0
 20
0
 30
0
  3
*Paper_Space
  0
ENDBLK
  5
1E2
330
1E0
100
AcDbEntity
  8
0
100
AcDbBlockEnd
  0
BLOCK
  5
1E4
330
1E3
100
AcDbEntity
  8
0
100
AcDbBlockBegin
  2
*D0
 70
1
 10
0
 20
0
 30
0
  3
*D0
  0
POINT
  5
1E5
330
1E3
100
AcDbEntity
  8
Defpoints
 62
8
100
AcDbPoint
 10
-2100
 20
0
 30
0
 50
0
  0
POINT
  5
1E6
330
1E3
100
AcDbEntity
  8
Defpoints
 62
8
100
AcDbPoint
 10
-2100
 20
2300
 30
0
 50
0
  0
POINT
  5
1E7
330
1E3
100
AcDbEntity
  8
Defpoints
 62
8
100
AcDbPoint
 10
-2100
 20
0
 30
0
 50
0
  0
LINE
  5
1E8
330
1E3
100
AcDbEntity
  8
0
  6
ByBlock
 62
8
370
-2
100
AcDbLine
 10
-2100
 20
0
 30
0
 11
-2100
 21
0
 31
0
  0
LINE
  5
1E9
330
1E3
100
AcDbEntity
  8
0
  6
ByBlock
 62
8
370
-2
100
AcDbLine
 10
-2100
 20
2300
 30
0
 11
-2100
 21
2300
 31
0
  0
LINE
  5
1EA
330
1E3
100
AcDbEntity
  8
0
  6
ByBlock
 62
8
370
-2
100
AcDbLine
 10
-2300
 20
200
 30
0
 11
-1900
 21
-200
 31
0
  0
LINE
  5
1EB
330
1E3
100
AcDbEntity
  8
0
  6
ByBlock
 62
8
370
-2
100
AcDbLine
 10
-1900
 20
2100
 30
0
 11
-2300
 21
2500
 31
0
  0
LINE
  5
1EC
330
1E3
100
AcDbEntity
  8
0
  6
ByBlock
 62
8
370
-2
100
AcDbLine
 10
-2100
 20
0
 30
0
 11
-2100
 21
2300
 31
0
  0
MTEXT
  5
1ED
330
1E3
100
AcDbEntity
  8
0
 62
31
100
AcDbMText
 10
-2250
 20
1150
 30
0
 11
0
 21
1
 31
0
 40
200
 41
0
 71
5
 72
5
  1
\A1;2300
  7
SC-BBS2
 73
1
  0
ENDBLK
  5
1EE
330
1E3
100
AcDbEntity
  8
0
100
AcDbBlockEnd
  0
BLOCK
  5
1F0
330
1EF
100
AcDbEntity
  8
0
100
AcDbBlockBegin
  2
*D1
 70
1
 10
0
 20
0
 30
0
  3
*D1
  0
POINT
  5
1F1
330
1EF
100
AcDbEntity
  8
Defpoints
 62
8
100
AcDbPoint
 10
-2100
 20
2300
 30
0
 50
0
  0
POINT
  5
1F2
330
1EF
100
AcDbEntity
  8
Defpoints
 62
8
100
AcDbPoint
 10
-2100
 20
3800
 30
0
 50
0
  0
POINT
  5
1F3
330
1EF
100
AcDbEntity
  8
Defpoints
 62
8
100
AcDbPoint
 10
-2100
 20
2300
 30
0
 50
0
  0
LINE
  5
1F4
330
1EF
100
AcDbEntity
  8
0
  6
ByBlock
 62
8
370
-2
100
AcDbLine
 10
-2100
 20
2300
 30
0
 11
-2100
 21
2300
 31
0
  0
LINE
  5
1F5
330
1EF
100
AcDbEntity
  8
0
  6
ByBlock
 62
8
370
-2
100
AcDbLine
 10
-2100
 20
3800
 30
0
 11
-2100
 21
3800
 31
0
  0
LINE
  5
1F6
330
1EF
100
AcDbEntity
  8
0
  6
ByBlock
 62
8
370
-2
100
AcDbLine
 10
-2300
 20
2500
 30
0
 11
-1900
 21
2100
 31
0
  0
LINE
  5
1F7
330
1EF
100
AcDbEntity
  8
0
  6
ByBlock
 62
8
370
-2
100
AcDbLine
 10
-1900
 20
3600
 30
0
 11
-2300
 21
4000
 31
0
  0
LINE
  5
1F8
330
1EF
100
AcDbEntity
  8
0
  6
ByBlock
 62
8
370
-2
100
AcDbLine
 10
-2100
 20
2300
 30
0
 11
-2100
 21
3800
 31
0
  0
MTEXT
  5
1F9
330
1EF
100
AcDbEntity
  8
0
 62
31
100
AcDbMText
 10
-2250
 20
3050
 30
0
 11
0
 21
1
 31
0
 40
200
 41
0
 71
5
 72
5
  1
\A1;1500
  7
SC-BBS2
 73
1
  0
ENDBLK
  5
1FA
330
1EF
100
AcDbEntity
  8
0
100
AcDbBlockEnd
  0
BLOCK
  5
1FC
330
1FB
100
AcDbEntity
  8
0
100
AcDbBlockBegin
  2
*D2
 70
1
 10
0
 20
0
 30
0
  3
*D2
  0
POINT
  5
1FD
330
1FB
100
AcDbEntity
  8
Defpoints
 62
8
100
AcDbPoint
 10
-2100
 20
3800
 30
0
 50
0
  0
POINT
  5
1FE
330
1FB
100
AcDbEntity
  8
Defpoints
 62
8
100
AcDbPoint
 10
-2100
 20
8950
 30
0
 50
0
  0
POINT
  5
1FF
330
1FB
100
AcDbEntity
  8
Defpoints
 62
8
100
AcDbPoint
 10
-2100
 20
3800
 30
0
 50
0
  0
LINE
  5
200
330
1FB
100
AcDbEntity
  8
0
  6
ByBlock
 62
8
370
-2
100
AcDbLine
 10
-2100
 20
3800
 30
0
 11
-2100
 21
3800
 31
0
  0
LINE
  5
201
330
1FB
100
AcDbEntity
  8
0
  6
ByBlock
 62
8
370
-2
100
AcDbLine
 10
-2100
 20
8950
 30
0
 11
-2100
 21
8950
 31
0
  0
LINE
  5
202
330
1FB
100
AcDbEntity
  8
0
  6
ByBlock
 62
8
370
-2
100
AcDbLine
 10
-2300
 20
4000
 30
0
 11
-1900
 21
3600
 31
0
  0
LINE
  5
203
330
1FB
100
AcDbEntity
  8
0
  6
ByBlock
 62
8
370
-2
100
AcDbLine
 10
-1900
 20
8750
 30
0
 11
-2300
 21
9150
 31
0
  0
LINE
  5
204
330
1FB
100
AcDbEntity
  8
0
  6
ByBlock
 62
8
370
-2
100
AcDbLine
 10
-2100
 20
3800
 30
0
 11
-2100
 21
8950
 31
0
  0
MTEXT
  5
205
330
1FB
100
AcDbEntity
  8
0
 62
31
100
AcDbMText
 10
-2250
 20
6375
 30
0
 11
0
 21
1
 31
0
 40
200
 41
0
 71
5
 72
5
  1
\A1;5150
  7
SC-BBS2
 73
1
  0
ENDBLK
  5
206
330
1FB
100
AcDbEntity
  8
0
100
AcDbBlockEnd
  0
BLOCK
  5
208
330
207
100
AcDbEntity
  8
0
100
AcDbBlockBegin
  2
*D3
 70
1
 10
0
 20
0
 30
0
  3
*D3
  0
POINT
  5
209
330
207
100
AcDbEntity
  8
Defpoints
 62
8
100
AcDbPoint
 10
-2100
 20
8950
 30
0
 50
0
  0
POINT
  5
20A
330
207
100
AcDbEntity
  8
Defpoints
 62
8
100
AcDbPoint
 10
-2100
 20
13450
 30
0
 50
0
  0
POINT
  5
20B
330
207
100
AcDbEntity
  8
Defpoints
 62
8
100
AcDbPoint
 10
-2100
 20
8950
 30
0
 50
0
  0
LINE
  5
20C
330
207
100
AcDbEntity
  8
0
  6
ByBlock
 62
8
370
-2
100
AcDbLine
 10
-2100
 20
8950
 30
0
 11
-2100
 21
8950
 31
0
  0
LINE
  5
20D
330
207
100
AcDbEntity
  8
0
  6
ByBlock
 62
8
370
-2
100
AcDbLine
 10
-2100
 20
13450
 30
0
 11
-2100
 21
13450
 31
0
  0
LINE
  5
20E
330
207
100
AcDbEntity
  8
0
  6
ByBlock
 62
8
370
-2
100
AcDbLine
 10
-2300
 20
9150
 30
0
 11
-1900
 21
8750
 31
0
  0
LINE
  5
20F
330
207
100
AcDbEntity
  8
0
  6
ByBlock
 62
8
370
-2
100
AcDbLine
 10
-1900
 20
13250
 30
0
 11
-2300
 21
13650
 31
0
  0
LINE
  5
210
330
207
100
AcDbEntity
  8
0
  6
ByBlock
 62
8
370
-2
100
AcDbLine
 10
-2100
 20
8950
 30
0
 11
-2100
 21
13450
 31
0
  0
MTEXT
  5
211
330
207
100
AcDbEntity
  8
0
 62
31
100
AcDbMText
 10
-2250
 20
11200
 30
0
 11
0
 21
1
 31
0
 40
200
 41
0
 71
5
 72
5
  1
\A1;4500
  7
SC-BBS2
 73
1
  0
ENDBLK
  5
212
330
207
100
AcDbEntity
  8
0
100
AcDbBlockEnd
  0
BLOCK
  5
214
330
213
100
AcDbEntity
  8
0
100
AcDbBlockBegin
  2
*D4
 70
1
 10
0
 20
0
 30
0
  3
*D4
  0
POINT
  5
215
330
213
100
AcDbEntity
  8
Defpoints
 62
8
100
AcDbPoint
 10
-2100
 20
13450
 30
0
 50
0
  0
POINT
  5
216
330
213
100
AcDbEntity
  8
Defpoints
 62
8
100
AcDbPoint
 10
-2100
 20
18100
 30
0
 50
0
  0
POINT
  5
217
330
213
100
AcDbEntity
  8
Defpoints
 62
8
100
AcDbPoint
 10
-2100
 20
13450
 30
0
 50
0
  0
LINE
  5
218
330
213
100
AcDbEntity
  8
0
  6
ByBlock
 62
8
370
-2
100
AcDbLine
 10
-2100
 20
13450
 30
0
 11
-2100
 21
13450
 31
0
  0
LINE
  5
219
330
213
100
AcDbEntity
  8
0
  6
ByBlock
 62
8
370
-2
100
AcDbLine
 10
-2100
 20
18100
 30
0
 11
-2100
 21
18100
 31
0
  0
LINE
  5
21A
330
213
100
AcDbEntity
  8
0
  6
ByBlock
 62
8
370
-2
100
AcDbLine
 10
-2300
 20
13650
 30
0
 11
-1900
 21
13250
 31
0
  0
LINE
  5
21B
330
213
100
AcDbEntity
  8
0
  6
ByBlock
 62
8
370
-2
100
AcDbLine
 10
-1900
 20
17900
 30
0
 11
-2300
 21
18300
 31
0
  0
LINE
  5
21C
330
213
100
AcDbEntity
  8
0
  6
ByBlock
 62
8
370
-2
100
AcDbLine
 10
-2100
 20
13450
 30
0
 11
-2100
 21
18100
 31
0
  0
MTEXT
  5
21D
330
213
100
AcDbEntity
  8
0
 62
31
100
AcDbMText
 10
-2250
 20
15775
 30
0
 11
0
 21
1
 31
0
 40
200
 41
0
 71
5
 72
5
  1
\A1;4650
  7
SC-BBS2
 73
1
  0
ENDBLK
  5
21E
330
213
100
AcDbEntity
  8
0
100
AcDbBlockEnd
  0
BLOCK
  5
220
330
21F
100
AcDbEntity
  8
0
100
AcDbBlockBegin
  2
*D5
 70
1
 10
0
 20
0
 30
0
  3
*D5
  0
POINT
  5
221
330
21F
100
AcDbEntity
  8
Defpoints
 62
8
100
AcDbPoint
 10
0
 20
20200
 30
0
 50
0
  0
POINT
  5
222
330
21F
100
AcDbEntity
  8
Defpoints
 62
8
100
AcDbPoint
 10
4500
 20
20200
 30
0
 50
0
  0
POINT
  5
223
330
21F
100
AcDbEntity
  8
Defpoints
 62
8
100
AcDbPoint
 10
0
 20
20200
 30
0
 50
0
  0
LINE
  5
224
330
21F
100
AcDbEntity
  8
0
  6
ByBlock
 62
8
370
-2
100
AcDbLine
 10
0
 20
20200
 30
0
 11
0
 21
20200
 31
0
  0
LINE
  5
225
330
21F
100
AcDbEntity
  8
0
  6
ByBlock
 62
8
370
-2
100
AcDbLine
 10
4500
 20
20200
 30
0
 11
4500
 21
20200
 31
0
  0
LINE
  5
226
330
21F
100
AcDbEntity
  8
0
  6
ByBlock
 62
8
370
-2
100
AcDbLine
 10
200
 20
20400
 30
0
 11
-200
 21
20000
 31
0
  0
LINE
  5
227
330
21F
100
AcDbEntity
  8
0
  6
ByBlock
 62
8
370
-2
100
AcDbLine
 10
4300
 20
20000
 30
0
 11
4700
 21
20400
 31
0
  0
LINE
  5
228
330
21F
100
AcDbEntity
  8
0
  6
ByBlock
 62
8
370
-2
100
AcDbLine
 10
0
 20
20200
 30
0
 11
4500
 21
20200
 31
0
  0
MTEXT
  5
229
330
21F
100
AcDbEntity
  8
0
 62
31
100
AcDbMText
 10
2250
 20
20350
 30
0
 11
1
 21
0
 31
0
 40
200
 41
0
 71
5
 72
5
  1
\A1;4500
  7
SC-BBS2
 73
1
  0
ENDBLK
  5
22A
330
21F
100
AcDbEntity
  8
0
100
AcDbBlockEnd
  0
BLOCK
  5
22C
330
22B
100
AcDbEntity
  8
0
100
AcDbBlockBegin
  2
*D6
 70
1
 10
0
 20
0
 30
0
  3
*D6
  0
POINT
  5
22D
330
22B
100
AcDbEntity
  8
Defpoints
 62
8
100
AcDbPoint
 10
4500
 20
20200
 30
0
 50
0
  0
POINT
  5
22E
330
22B
100
AcDbEntity
  8
Defpoints
 62
8
100
AcDbPoint
 10
8100
 20
20200
 30
0
 50
0
  0
POINT
  5
22F
330
22B
100
AcDbEntity
  8
Defpoints
 62
8
100
AcDbPoint
 10
4500
 20
20200
 30
0
 50
0
  0
LINE
  5
230
330
22B
100
AcDbEntity
  8
0
  6
ByBlock
 62
8
370
-2
100
AcDbLine
 10
4500
 20
20200
 30
0
 11
4500
 21
20200
 31
0
  0
LINE
  5
231
330
22B
100
AcDbEntity
  8
0
  6
ByBlock
 62
8
370
-2
100
AcDbLine
 10
8100
 20
20200
 30
0
 11
8100
 21
20200
 31
0
  0
LINE
  5
232
330
22B
100
AcDbEntity
  8
0
  6
ByBlock
 62
8
370
-2
100
AcDbLine
 10
4700
 20
20400
 30
0
 11
4300
 21
20000
 31
0
  0
LINE
  5
233
330
22B
100
AcDbEntity
  8
0
  6
ByBlock
 62
8
370
-2
100
AcDbLine
 10
7900
 20
20000
 30
0
 11
8300
 21
20400
 31
0
  0
LINE
  5
234
330
22B
100
AcDbEntity
  8
0
  6
ByBlock
 62
8
370
-2
100
AcDbLine
 10
4500
 20
20200
 30
0
 11
8100
 21
20200
 31
0
  0
MTEXT
  5
235
330
22B
100
AcDbEntity
  8
0
 62
31
100
AcDbMText
 10
6300
 20
20350
 30
0
 11
1
 21
0
 31
0
 40
200
 41
0
 71
5
 72
5
  1
\A1;3600
  7
SC-BBS2
 73
1
  0
ENDBLK
  5
236
330
22B
100
AcDbEntity
  8
0
100
AcDbBlockEnd
  0
BLOCK
  5
238
330
237
100
AcDbEntity
  8
0
100
AcDbBlockBegin
  2
*D7
 70
1
 10
0
 20
0
 30
0
  3
*D7
  0
POINT
  5
239
330
237
100
AcDbEntity
  8
Defpoints
 62
8
100
AcDbPoint
 10
8100
 20
20200
 30
0
 50
0
  0
POINT
  5
23A
330
237
100
AcDbEntity
  8
Defpoints
 62
8
100
AcDbPoint
 10
9600
 20
20200
 30
0
 50
0
  0
POINT
  5
23B
330
237
100
AcDbEntity
  8
Defpoints
 62
8
100
AcDbPoint
 10
8100
 20
20200
 30
0
 50
0
  0
LINE
  5
23C
330
237
100
AcDbEntity
  8
0
  6
ByBlock
 62
8
370
-2
100
AcDbLine
 10
8100
 20
20200
 30
0
 11
8100
 21
20200
 31
0
  0
LINE
  5
23D
330
237
100
AcDbEntity
  8
0
  6
ByBlock
 62
8
370
-2
100
AcDbLine
 10
9600
 20
20200
 30
0
 11
9600
 21
20200
 31
0
  0
LINE
  5
23E
330
237
100
AcDbEntity
  8
0
  6
ByBlock
 62
8
370
-2
100
AcDbLine
 10
8300
 20
20400
 30
0
 11
7900
 21
20000
 31
0
  0
LINE
  5
23F
330
237
100
AcDbEntity
  8
0
  6
ByBlock
 62
8
370
-2
100
AcDbLine
 10
9400
 20
20000
 30
0
 11
9800
 21
20400
 31
0
  0
LINE
  5
240
330
237
100
AcDbEntity
  8
0
  6
ByBlock
 62
8
370
-2
100
AcDbLine
 10
8100
 20
20200
 30
0
 11
9600
 21
20200
 31
0
  0
MTEXT
  5
241
330
237
100
AcDbEntity
  8
0
 62
31
100
AcDbMText
 10
8850
 20
20350
 30
0
 11
1
 21
0
 31
0
 40
200
 41
0
 71
5
 72
5
  1
\A1;1500
  7
SC-BBS2
 73
1
  0
ENDBLK
  5
242
330
237
100
AcDbEntity
  8
0
100
AcDbBlockEnd
  0
BLOCK
  5
244
330
243
100
AcDbEntity
  8
0
100
AcDbBlockBegin
  2
*D8
 70
1
 10
0
 20
0
 30
0
  3
*D8
  0
POINT
  5
245
330
243
100
AcDbEntity
  8
Defpoints
 62
8
100
AcDbPoint
 10
9600
 20
20200
 30
0
 50
0
  0
POINT
  5
246
330
243
100
AcDbEntity
  8
Defpoints
 62
8
100
AcDbPoint
 10
13500
 20
20200
 30
0
 50
0
  0
POINT
  5
247
330
243
100
AcDbEntity
  8
Defpoints
 62
8
100
AcDbPoint
 10
9600
 20
20200
 30
0
 50
0
  0
LINE
  5
248
330
243
100
AcDbEntity
  8
0
  6
ByBlock
 62
8
370
-2
100
AcDbLine
 10
9600
 20
20200
 30
0
 11
9600
 21
20200
 31
0
  0
LINE
  5
249
330
243
100
AcDbEntity
  8
0
  6
ByBlock
 62
8
370
-2
100
AcDbLine
 10
13500
 20
20200
 30
0
 11
13500
 21
20200
 31
0
  0
LINE
  5
24A
330
243
100
AcDbEntity
  8
0
  6
ByBlock
 62
8
370
-2
100
AcDbLine
 10
9800
 20
20400
 30
0
 11
9400
 21
20000
 31
0
  0
LINE
  5
24B
330
243
100
AcDbEntity
  8
0
  6
ByBlock
 62
8
370
-2
100
AcDbLine
 10
13300
 20
20000
 30
0
 11
13700
 21
20400
 31
0
  0
LINE
  5
24C
330
243
100
AcDbEntity
  8
0
  6
ByBlock
 62
8
370
-2
100
AcDbLine
 10
9600
 20
20200
 30
0
 11
13500
 21
20200
 31
0
  0
MTEXT
  5
24D
330
243
100
AcDbEntity
  8
0
 62
31
100
AcDbMText
 10
11550
 20
20350
 30
0
 11
1
 21
0
 31
0
 40
200
 41
0
 71
5
 72
5
  1
\A1;3900
  7
SC-BBS2
 73
1
  0
ENDBLK
  5
24E
330
243
100
AcDbEntity
  8
0
100
AcDbBlockEnd
  0
ENDSEC
  0
SECTION
  2
ENTITIES
  0
LINE
  5
54
330
1F
100
AcDbEntity
  8
Beam
100
AcDbLine
 10
-1250
 20
18215
 30
0
 11
-1250
 21
17985
 31
0
  0
LINE
  5
55
330
1F
100
AcDbEntity
  8
Beam
100
AcDbLine
 10
14750
 20
18215
 30
0
 11
14750
 21
17985
 31
0
  0
LINE
  5
56
330
1F
100
AcDbEntity
  8
Beam
100
AcDbLine
 10
-1250
 20
13565
 30
0
 11
-1250
 21
13335
 31
0
  0
LINE
  5
57
330
1F
100
AcDbEntity
  8
Beam
100
AcDbLine
 10
14750
 20
13565
 30
0
 11
14750
 21
13335
 31
0
  0
LINE
  5
58
330
1F
100
AcDbEntity
  8
Beam
100
AcDbLine
 10
-1250
 20
9065
 30
0
 11
-1250
 21
8835
 31
0
  0
LINE
  5
59
330
1F
100
AcDbEntity
  8
Beam
100
AcDbLine
 10
14750
 20
9065
 30
0
 11
14750
 21
8835
 31
0
  0
LINE
  5
5A
330
1F
100
AcDbEntity
  8
Beam
100
AcDbLine
 10
-1250
 20
4415
 30
0
 11
-1250
 21
4185
 31
0
  0
LINE
  5
5B
330
1F
100
AcDbEntity
  8
Beam
100
AcDbLine
 10
14750
 20
4415
 30
0
 11
14750
 21
4185
 31
0
  0
LINE
  5
5C
330
1F
100
AcDbEntity
  8
Beam
100
AcDbLine
 10
-1250
 20
115
 30
0
 11
-1250
 21
-115
 31
0
  0
LINE
  5
5D
330
1F
100
AcDbEntity
  8
Beam
100
AcDbLine
 10
14750
 20
115
 30
0
 11
14750
 21
-115
 31
0
  0
LINE
  5
5E
330
1F
100
AcDbEntity
  8
Beam
100
AcDbLine
 10
1615
 20
-1250
 30
0
 11
1385
 21
-1250
 31
0
  0
LINE
  5
5F
330
1F
100
AcDbEntity
  8
Beam
100
AcDbLine
 10
5515
 20
-1250
 30
0
 11
5285
 21
-1250
 31
0
  0
LINE
  5
60
330
1F
100
AcDbEntity
  8
Beam
100
AcDbLine
 10
8250
 20
-1250
 30
0
 11
7950
 21
-1250
 31
0
  0
LINE
  5
61
330
1F
100
AcDbEntity
  8
Beam
100
AcDbLine
 10
12365
 20
-1250
 30
0
 11
12135
 21
-1250
 31
0
  0
HATCH
  5
62
330
1F
100
AcDbEntity
  8
Column
100
AcDbHatch
 10
0
 20
0
 30
0
210
0
220
0
230
1
  2
SOLID
 70
1
 71
0
 91
1
 92
2
 72
0
 73
1
 93
4
 10
7900
 20
4100
 10
7900
 20
4500
 10
8300
 20
4500
 10
8300
 20
4100
 97
0
 75
0
 76
0
 98
0
  0
LWPOLYLINE
  5
63
330
1F
100
AcDbEntity
  8
Column
100
AcDbPolyline
 90
4
 70
1
 10
7900
 20
4100
 10
7900
 20
4500
 10
8300
 20
4500
 10
8300
 20
4100
  0
HATCH
  5
64
330
1F
100
AcDbEntity
  8
Column
100
AcDbHatch
 10
0
 20
0
 30
0
210
0
220
0
230
1
  2
SOLID
 70
1
 71
0
 91
1
 92
2
 72
0
 73
1
 93
4
 10
-200
 20
-200
 10
-200
 20
200
 10
200
 20
200
 10
200
 20
-200
 97
0
 75
0
 76
0
 98
0
  0
LWPOLYLINE
  5
65
330
1F
100
AcDbEntity
  8
Column
100
AcDbPolyline
 90
4
 70
1
 10
-200
 20
-200
 10
-200
 20
200
 10
200
 20
200
 10
200
 20
-200
  0
HATCH
  5
66
330
1F
100
AcDbEntity
  8
Column
100
AcDbHatch
 10
0
 20
0
 30
0
210
0
220
0
230
1
  2
SOLID
 70
1
 71
0
 91
1
 92
2
 72
0
 73
1
 93
4
 10
5200
 20
-200
 10
5200
 20
200
 10
5600
 20
200
 10
5600
 20
-200
 97
0
 75
0
 76
0
 98
0
  0
LWPOLYLINE
  5
67
330
1F
100
AcDbEntity
  8
Column
100
AcDbPolyline
 90
4
 70
1
 10
5200
 20
-200
 10
5200
 20
200
 10
5600
 20
200
 10
5600
 20
-200
  0
HATCH
  5
68
330
1F
100
AcDbEntity
  8
Column
100
AcDbHatch
 10
0
 20
0
 30
0
210
0
220
0
230
1
  2
SOLID
 70
1
 71
0
 91
1
 92
2
 72
0
 73
1
 93
4
 10
7900
 20
-200
 10
7900
 20
200
 10
8300
 20
200
 10
8300
 20
-200
 97
0
 75
0
 76
0
 98
0
  0
LWPOLYLINE
  5
69
330
1F
100
AcDbEntity
  8
Column
100
AcDbPolyline
 90
4
 70
1
 10
7900
 20
-200
 10
7900
 20
200
 10
8300
 20
200
 10
8300
 20
-200
  0
HATCH
  5
6A
330
1F
100
AcDbEntity
  8
Column
100
AcDbHatch
 10
0
 20
0
 30
0
210
0
220
0
230
1
  2
SOLID
 70
1
 71
0
 91
1
 92
2
 72
0
 73
1
 93
4
 10
13300
 20
-200
 10
13300
 20
200
 10
13700
 20
200
 10
13700
 20
-200
 97
0
 75
0
 76
0
 98
0
  0
LWPOLYLINE
  5
6B
330
1F
100
AcDbEntity
  8
Column
100
AcDbPolyline
 90
4
 70
1
 10
13300
 20
-200
 10
13300
 20
200
 10
13700
 20
200
 10
13700
 20
-200
  0
HATCH
  5
6C
330
1F
100
AcDbEntity
  8
Column
100
AcDbHatch
 10
0
 20
0
 30
0
210
0
220
0
230
1
  2
SOLID
 70
1
 71
0
 91
1
 92
2
 72
0
 73
1
 93
4
 10
-200
 20
4100
 10
-200
 20
4500
 10
200
 20
4500
 10
200
 20
4100
 97
0
 75
0
 76
0
 98
0
  0
LWPOLYLINE
  5
6D
330
1F
100
AcDbEntity
  8
Column
100
AcDbPolyline
 90
4
 70
1
 10
-200
 20
4100
 10
-200
 20
4500
 10
200
 20
4500
 10
200
 20
4100
  0
HATCH
  5
6E
330
1F
100
AcDbEntity
  8
Column
100
AcDbHatch
 10
0
 20
0
 30
0
210
0
220
0
230
1
  2
SOLID
 70
1
 71
0
 91
1
 92
2
 72
0
 73
1
 93
4
 10
5200
 20
4100
 10
5200
 20
4500
 10
5600
 20
4500
 10
5600
 20
4100
 97
0
 75
0
 76
0
 98
0
  0
LWPOLYLINE
  5
6F
330
1F
100
AcDbEntity
  8
Column
100
AcDbPolyline
 90
4
 70
1
 10
5200
 20
4100
 10
5200
 20
4500
 10
5600
 20
4500
 10
5600
 20
4100
  0
HATCH
  5
70
330
1F
100
AcDbEntity
  8
Column
100
AcDbHatch
 10
0
 20
0
 30
0
210
0
220
0
230
1
  2
SOLID
 70
1
 71
0
 91
1
 92
2
 72
0
 73
1
 93
4
 10
13300
 20
4100
 10
13300
 20
4500
 10
13700
 20
4500
 10
13700
 20
4100
 97
0
 75
0
 76
0
 98
0
  0
LWPOLYLINE
  5
71
330
1F
100
AcDbEntity
  8
Column
100
AcDbPolyline
 90
4
 70
1
 10
13300
 20
4100
 10
13300
 20
4500
 10
13700
 20
4500
 10
13700
 20
4100
  0
HATCH
  5
72
330
1F
100
AcDbEntity
  8
Column
100
AcDbHatch
 10
0
 20
0
 30
0
210
0
220
0
230
1
  2
SOLID
 70
1
 71
0
 91
1
 92
2
 72
0
 73
1
 93
4
 10
-200
 20
8750
 10
-200
 20
9150
 10
200
 20
9150
 10
200
 20
8750
 97
0
 75
0
 76
0
 98
0
  0
LWPOLYLINE
  5
73
330
1F
100
AcDbEntity
  8
Column
100
AcDbPolyline
 90
4
 70
1
 10
-200
 20
8750
 10
-200
 20
9150
 10
200
 20
9150
 10
200
 20
8750
  0
HATCH
  5
74
330
1F
100
AcDbEntity
  8
Column
100
AcDbHatch
 10
0
 20
0
 30
0
210
0
220
0
230
1
  2
SOLID
 70
1
 71
0
 91
1
 92
2
 72
0
 73
1
 93
4
 10
13300
 20
8750
 10
13300
 20
9150
 10
13700
 20
9150
 10
13700
 20
8750
 97
0
 75
0
 76
0
 98
0
  0
LWPOLYLINE
  5
75
330
1F
100
AcDbEntity
  8
Column
100
AcDbPolyline
 90
4
 70
1
 10
13300
 20
8750
 10
13300
 20
9150
 10
13700
 20
9150
 10
13700
 20
8750
  0
HATCH
  5
76
330
1F
100
AcDbEntity
  8
Column
100
AcDbHatch
 10
0
 20
0
 30
0
210
0
220
0
230
1
  2
SOLID
 70
1
 71
0
 91
1
 92
2
 72
0
 73
1
 93
4
 10
-200
 20
13250
 10
-200
 20
13650
 10
200
 20
13650
 10
200
 20
13250
 97
0
 75
0
 76
0
 98
0
  0
LWPOLYLINE
  5
77
330
1F
100
AcDbEntity
  8
Column
100
AcDbPolyline
 90
4
 70
1
 10
-200
 20
13250
 10
-200
 20
13650
 10
200
 20
13650
 10
200
 20
13250
  0
HATCH
  5
78
330
1F
100
AcDbEntity
  8
Column
100
AcDbHatch
 10
0
 20
0
 30
0
210
0
220
0
230
1
  2
SOLID
 70
1
 71
0
 91
1
 92
2
 72
0
 73
1
 93
4
 10
13300
 20
13250
 10
13300
 20
13650
 10
13700
 20
13650
 10
13700
 20
13250
 97
0
 75
0
 76
0
 98
0
  0
LWPOLYLINE
  5
79
330
1F
100
AcDbEntity
  8
Column
100
AcDbPolyline
 90
4
 70
1
 10
13300
 20
13250
 10
13300
 20
13650
 10
13700
 20
13650
 10
13700
 20
13250
  0
HATCH
  5
7A
330
1F
100
AcDbEntity
  8
Column
100
AcDbHatch
 10
0
 20
0
 30
0
210
0
220
0
230
1
  2
SOLID
 70
1
 71
0
 91
1
 92
2
 72
0
 73
1
 93
4
 10
-200
 20
17900
 10
-200
 20
18300
 10
200
 20
18300
 10
200
 20
17900
 97
0
 75
0
 76
0
 98
0
  0
LWPOLYLINE
  5
7B
330
1F
100
AcDbEntity
  8
Column
100
AcDbPolyline
 90
4
 70
1
 10
-200
 20
17900
 10
-200
 20
18300
 10
200
 20
18300
 10
200
 20
17900
  0
HATCH
  5
7C
330
1F
100
AcDbEntity
  8
Column
100
AcDbHatch
 10
0
 20
0
 30
0
210
0
220
0
230
1
  2
SOLID
 70
1
 71
0
 91
1
 92
2
 72
0
 73
1
 93
4
 10
13300
 20
17900
 10
13300
 20
18300
 10
13700
 20
18300
 10
13700
 20
17900
 97
0
 75
0
 76
0
 98
0
  0
LWPOLYLINE
  5
7D
330
1F
100
AcDbEntity
  8
Column
100
AcDbPolyline
 90
4
 70
1
 10
13300
 20
17900
 10
13300
 20
18300
 10
13700
 20
18300
 10
13700
 20
17900
  0
HATCH
  5
7E
330
1F
100
AcDbEntity
  8
Column
100
AcDbHatch
 10
0
 20
0
 30
0
210
0
220
0
230
1
  2
SOLID
 70
1
 71
0
 91
1
 92
2
 72
0
 73
1
 93
4
 10
4300
 20
8750
 10
4300
 20
9150
 10
4700
 20
9150
 10
4700
 20
8750
 97
0
 75
0
 76
0
 98
0
  0
LWPOLYLINE
  5
7F
330
1F
100
AcDbEntity
  8
Column
100
AcDbPolyline
 90
4
 70
1
 10
4300
 20
8750
 10
4300
 20
9150
 10
4700
 20
9150
 10
4700
 20
8750
  0
HATCH
  5
80
330
1F
100
AcDbEntity
  8
Column
100
AcDbHatch
 10
0
 20
0
 30
0
210
0
220
0
230
1
  2
SOLID
 70
1
 71
0
 91
1
 92
2
 72
0
 73
1
 93
4
 10
4300
 20
13250
 10
4300
 20
13650
 10
4700
 20
13650
 10
4700
 20
13250
 97
0
 75
0
 76
0
 98
0
  0
LWPOLYLINE
  5
81
330
1F
100
AcDbEntity
  8
Column
100
AcDbPolyline
 90
4
 70
1
 10
4300
 20
13250
 10
4300
 20
13650
 10
4700
 20
13650
 10
4700
 20
13250
  0
HATCH
  5
82
330
1F
100
AcDbEntity
  8
Column
100
AcDbHatch
 10
0
 20
0
 30
0
210
0
220
0
230
1
  2
SOLID
 70
1
 71
0
 91
1
 92
2
 72
0
 73
1
 93
4
 10
4275
 20
17900
 10
4275
 20
18300
 10
4725
 20
18300
 10
4725
 20
17900
 97
0
 75
0
 76
0
 98
0
  0
LWPOLYLINE
  5
83
330
1F
100
AcDbEntity
  8
Column
100
AcDbPolyline
 90
4
 70
1
 10
4275
 20
17900
 10
4275
 20
18300
 10
4725
 20
18300
 10
4725
 20
17900
  0
HATCH
  5
84
330
1F
100
AcDbEntity
  8
Column
100
AcDbHatch
 10
0
 20
0
 30
0
210
0
220
0
230
1
  2
SOLID
 70
1
 71
0
 91
1
 92
2
 72
0
 73
1
 93
4
 10
9400
 20
8750
 10
9400
 20
9150
 10
9800
 20
9150
 10
9800
 20
8750
 97
0
 75
0
 76
0
 98
0
  0
LWPOLYLINE
  5
85
330
1F
100
AcDbEntity
  8
Column
100
AcDbPolyline
 90
4
 70
1
 10
9400
 20
8750
 10
9400
 20
9150
 10
9800
 20
9150
 10
9800
 20
8750
  0
HATCH
  5
86
330
1F
100
AcDbEntity
  8
Column
100
AcDbHatch
 10
0
 20
0
 30
0
210
0
220
0
230
1
  2
SOLID
 70
1
 71
0
 91
1
 92
2
 72
0
 73
1
 93
4
 10
9400
 20
13250
 10
9400
 20
13650
 10
9800
 20
13650
 10
9800
 20
13250
 97
0
 75
0
 76
0
 98
0
  0
LWPOLYLINE
  5
87
330
1F
100
AcDbEntity
  8
Column
100
AcDbPolyline
 90
4
 70
1
 10
9400
 20
13250
 10
9400
 20
13650
 10
9800
 20
13650
 10
9800
 20
13250
  0
HATCH
  5
88
330
1F
100
AcDbEntity
  8
Column
100
AcDbHatch
 10
0
 20
0
 30
0
210
0
220
0
230
1
  2
SOLID
 70
1
 71
0
 91
1
 92
2
 72
0
 73
1
 93
4
 10
9400
 20
17900
 10
9400
 20
18300
 10
9800
 20
18300
 10
9800
 20
17900
 97
0
 75
0
 76
0
 98
0
  0
LWPOLYLINE
  5
89
330
1F
100
AcDbEntity
  8
Column
100
AcDbPolyline
 90
4
 70
1
 10
9400
 20
17900
 10
9400
 20
18300
 10
9800
 20
18300
 10
9800
 20
17900
  0
HATCH
  5
8A
330
1F
100
AcDbEntity
  8
Column
100
AcDbHatch
 10
0
 20
0
 30
0
210
0
220
0
230
1
  2
SOLID
 70
1
 71
0
 91
1
 92
2
 72
0
 73
1
 93
4
 10
7950
 20
2200
 10
7950
 20
2400
 10
9600
 20
2400
 10
9600
 20
2200
 97
0
 75
0
 76
0
 98
0
  0
LWPOLYLINE
  5
8B
330
1F
100
AcDbEntity
  8
Column
100
AcDbPolyline
 90
4
 70
1
 10
7950
 20
2200
 10
7950
 20
2400
 10
9600
 20
2400
 10
9600
 20
2200
  0
HATCH
  5
8C
330
1F
100
AcDbEntity
  8
Column
100
AcDbHatch
 10
0
 20
0
 30
0
210
0
220
0
230
1
  2
SOLID
 70
1
 71
0
 91
1
 92
2
 72
0
 73
1
 93
4
 10
9700
 20
2300
 10
9500
 20
2300
 10
9500
 20
3800
 10
9700
 20
3800
 97
0
 75
0
 76
0
 98
0
  0
LWPOLYLINE
  5
8D
330
1F
100
AcDbEntity
  8
Column
100
AcDbPolyline
 90
4
 70
1
 10
9700
 20
2300
 10
9500
 20
2300
 10
9500
 20
3800
 10
9700
 20
3800
  0
HATCH
  5
8E
330
1F
100
AcDbEntity
  8
Column
100
AcDbHatch
 10
0
 20
0
 30
0
210
0
220
0
230
1
  2
SOLID
 70
1
 71
0
 91
1
 92
2
 72
0
 73
1
 93
4
 10
7950
 20
3700
 10
7950
 20
3900
 10
9600
 20
3900
 10
9600
 20
3700
 97
0
 75
0
 76
0
 98
0
  0
LWPOLYLINE
  5
8F
330
1F
100
AcDbEntity
  8
Column
100
AcDbPolyline
 90
4
 70
1
 10
7950
 20
3700
 10
7950
 20
3900
 10
9600
 20
3900
 10
9600
 20
3700
  0
LWPOLYLINE
  5
90
330
1F
100
AcDbEntity
  8
Column
100
AcDbPolyline
 90
8
 70
1
 10
8100
 20
3875
 10
8100
 20
3725
 10
9525
 20
3725
 10
9525
 20
2375
 10
8100
 20
2375
 10
8100
 20
2225
 10
9675
 20
2225
 10
9675
 20
3875
  0
HATCH
  5
91
330
1F
100
AcDbEntity
  8
Column
100
AcDbHatch
 10
0
 20
0
 30
0
210
0
220
0
230
1
  2
SOLID
 70
1
 71
0
 91
1
 92
2
 72
0
 73
1
 93
8
 10
8100
 20
3875
 10
8100
 20
3725
 10
9525
 20
3725
 10
9525
 20
2375
 10
8100
 20
2375
 10
8100
 20
2225
 10
9675
 20
2225
 10
9675
 20
3875
 97
0
 75
0
 76
0
 98
0
  0
TEXT
  5
92
330
1F
100
AcDbEntity
  8
Column Nos
100
AcDbText
 10
8286.8312768936157
 20
3900
 30
0
 40
200
  1
C15
 11
8300
 21
4100
 31
0
  7
SC-BBS2
100
AcDbText
 73
3
  0
TEXT
  5
93
330
1F
100
AcDbEntity
  8
Column Nos
100
AcDbText
 10
186.83127689361572
 20
-400
 30
0
 40
200
  1
C20
 11
200
 21
-200
 31
0
  7
SC-BBS2
100
AcDbText
 73
3
  0
TEXT
  5
94
330
1F
100
AcDbEntity
  8
Column Nos
100
AcDbText
 10
5586.8312768936157
 20
-400
 30
0
 40
200
  1
C21
 11
5600
 21
-200
 31
0
  7
SC-BBS2
100
AcDbText
 73
3
  0
TEXT
  5
95
330
1F
100
AcDbEntity
  8
Column Nos
100
AcDbText
 10
8286.8312768936157
 20
-400
 30
0
 40
200
  1
C22
 11
8300
 21
-200
 31
0
  7
SC-BBS2
100
AcDbText
 73
3
  0
TEXT
  5
96
330
1F
100
AcDbEntity
  8
Column Nos
100
AcDbText
 10
13686.831276893616
 20
-400
 30
0
 40
200
  1
C23
 11
13700
 21
-200
 31
0
  7
SC-BBS2
100
AcDbText
 73
3
  0
TEXT
  5
97
330
1F
100
AcDbEntity
  8
Column Nos
100
AcDbText
 10
186.83127689361572
 20
3900
 30
0
 40
200
  1
C13
 11
200
 21
4100
 31
0
  7
SC-BBS2
100
AcDbText
 73
3
  0
TEXT
  5
98
330
1F
100
AcDbEntity
  8
Column Nos
100
AcDbText
 10
5586.8312768936157
 20
3900
 30
0
 40
200
  1
C14
 11
5600
 21
4100
 31
0
  7
SC-BBS2
100
AcDbText
 73
3
  0
TEXT
  5
99
330
1F
100
AcDbEntity
  8
Column Nos
100
AcDbText
 10
13686.831276893616
 20
3900
 30
0
 40
200
  1
C16
 11
13700
 21
4100
 31
0
  7
SC-BBS2
100
AcDbText
 73
3
  0
TEXT
  5
9A
330
1F
100
AcDbEntity
  8
Column Nos
100
AcDbText
 10
186.83127689361572
 20
8550
 30
0
 40
200
  1
C9
 11
200
 21
8750
 31
0
  7
SC-BBS2
100
AcDbText
 73
3
  0
TEXT
  5
9B
330
1F
100
AcDbEntity
  8
Column Nos
100
AcDbText
 10
13686.831276893616
 20
8550
 30
0
 40
200
  1
C12
 11
13700
 21
8750
 31
0
  7
SC-BBS2
100
AcDbText
 73
3
  0
TEXT
  5
9C
330
1F
100
AcDbEntity
  8
Column Nos
100
AcDbText
 10
186.83127689361572
 20
13050
 30
0
 40
200
  1
C5
 11
200
 21
13250
 31
0
  7
SC-BBS2
100
AcDbText
 73
3
  0
TEXT
  5
9D
330
1F
100
AcDbEntity
  8
Column Nos
100
AcDbText
 10
13686.831276893616
 20
13050
 30
0
 40
200
  1
C8
 11
13700
 21
13250
 31
0
  7
SC-BBS2
100
AcDbText
 73
3
  0
TEXT
  5
9E
330
1F
100
AcDbEntity
  8
Column Nos
100
AcDbText
 10
186.83127689361572
 20
17700
 30
0
 40
200
  1
C1
 11
200
 21
17900
 31
0
  7
SC-BBS2
100
AcDbText
 73
3
  0
TEXT
  5
9F
330
1F
100
AcDbEntity
  8
Column Nos
100
AcDbText
 10
13686.831276893616
 20
17700
 30
0
 40
200
  1
C4
 11
13700
 21
17900
 31
0
  7
SC-BBS2
100
AcDbText
 73
3
  0
TEXT
  5
A0
330
1F
100
AcDbEntity
  8
Column Nos
100
AcDbText
 10
4686.8312768936157
 20
8550
 30
0
 40
200
  1
C10
 11
4700
 21
8750
 31
0
  7
SC-BBS2
100
AcDbText
 73
3
  0
TEXT
  5
A1
330
1F
100
AcDbEntity
  8
Column Nos
100
AcDbText
 10
4686.8312768936157
 20
13050
 30
0
 40
200
  1
C6
 11
4700
 21
13250
 31
0
  7
SC-BBS2
100
AcDbText
 73
3
  0
TEXT
  5
A2
330
1F
100
AcDbEntity
  8
Column Nos
100
AcDbText
 10
4711.8312768936157
 20
17700
 30
0
 40
200
  1
C2
 11
4725
 21
17900
 31
0
  7
SC-BBS2
100
AcDbText
 73
3
  0
TEXT
  5
A3
330
1F
100
AcDbEntity
  8
Column Nos
100
AcDbText
 10
9786.8312768936157
 20
8550
 30
0
 40
200
  1
C11
 11
9800
 21
8750
 31
0
  7
SC-BBS2
100
AcDbText
 73
3
  0
TEXT
  5
A4
330
1F
100
AcDbEntity
  8
Column Nos
100
AcDbText
 10
9786.8312768936157
 20
13050
 30
0
 40
200
  1
C7
 11
9800
 21
13250
 31
0
  7
SC-BBS2
100
AcDbText
 73
3
  0
TEXT
  5
A5
330
1F
100
AcDbEntity
  8
Column Nos
100
AcDbText
 10
9786.8312768936157
 20
17700
 30
0
 40
200
  1
C3
 11
9800
 21
17900
 31
0
  7
SC-BBS2
100
AcDbText
 73
3
  0
TEXT
  5
A6
330
1F
100
AcDbEntity
  8
Column Nos
100
AcDbText
 10
9586.8312768936157
 20
2000
 30
0
 40
200
  1
C19
 11
9600
 21
2200
 31
0
  7
SC-BBS2
100
AcDbText
 73
3
  0
TEXT
  5
A7
330
1F
100
AcDbEntity
  8
Column Nos
100
AcDbText
 10
9686.8312768936157
 20
2100
 30
0
 40
200
  1
C18
 11
9700
 21
2300
 31
0
  7
SC-BBS2
100
AcDbText
 73
3
  0
TEXT
  5
A8
330
1F
100
AcDbEntity
  8
Column Nos
100
AcDbText
 10
9586.8312768936157
 20
3500
 30
0
 40
200
  1
C17
 11
9600
 21
3700
 31
0
  7
SC-BBS2
100
AcDbText
 73
3
  0
LINE
  5
A9
330
1F
100
AcDbEntity
  8
Beam
100
AcDbLine
 10
-1250
 20
18215
 30
0
 11
-200
 21
18215
 31
0
  0
LINE
  5
AA
330
1F
100
AcDbEntity
  8
Beam
100
AcDbLine
 10
-1250
 20
17985
 30
0
 11
-200
 21
17985
 31
0
  0
LINE
  5
AB
330
1F
100
AcDbEntity
  8
Beam
100
AcDbLine
 10
200
 20
18225
 30
0
 11
3205
 21
18225
 31
0
  0
LINE
  5
AC
330
1F
100
AcDbEntity
  8
Beam
100
AcDbLine
 10
200
 20
17975
 30
0
 11
2955
 21
17975
 31
0
  0
LINE
  5
AD
330
1F
100
AcDbEntity
  8
Beam
100
AcDbLine
 10
3142.5
 20
18225
 30
0
 11
4275
 21
18225
 31
0
  0
LINE
  5
AE
330
1F
100
AcDbEntity
  8
Beam
100
AcDbLine
 10
3205
 20
17975
 30
0
 11
4275
 21
17975
 31
0
  0
LINE
  5
AF
330
1F
100
AcDbEntity
  8
Beam
100
AcDbLine
 10
4725
 20
18225
 30
0
 11
9400
 21
18225
 31
0
  0
LINE
  5
B0
330
1F
100
AcDbEntity
  8
Beam
100
AcDbLine
 10
4725
 20
17975
 30
0
 11
9400
 21
17975
 31
0
  0
LINE
  5
B1
330
1F
100
AcDbEntity
  8
Beam
100
AcDbLine
 10
9800
 20
18225
 30
0
 11
13300
 21
18225
 31
0
  0
LINE
  5
B2
330
1F
100
AcDbEntity
  8
Beam
100
AcDbLine
 10
9800
 20
17975
 30
0
 11
13300
 21
17975
 31
0
  0
LINE
  5
B3
330
1F
100
AcDbEntity
  8
Beam
100
AcDbLine
 10
13700
 20
18215
 30
0
 11
14750
 21
18215
 31
0
  0
LINE
  5
B4
330
1F
100
AcDbEntity
  8
Beam
100
AcDbLine
 10
13700
 20
17985
 30
0
 11
14750
 21
17985
 31
0
  0
LINE
  5
B5
330
1F
100
AcDbEntity
  8
Beam
100
AcDbLine
 10
125
 20
16525
 30
0
 11
2955
 21
16525
 31
0
  0
LINE
  5
B6
330
1F
100
AcDbEntity
  8
Beam
100
AcDbLine
 10
125
 20
16275
 30
0
 11
2955
 21
16275
 31
0
  0
LINE
  5
B7
330
1F
100
AcDbEntity
  8
Beam
100
AcDbLine
 10
-1250
 20
13565
 30
0
 11
-200
 21
13565
 31
0
  0
LINE
  5
B8
330
1F
100
AcDbEntity
  8
Beam
100
AcDbLine
 10
-1250
 20
13335
 30
0
 11
-200
 21
13335
 31
0
  0
LINE
  5
B9
330
1F
100
AcDbEntity
  8
Beam
100
AcDbLine
 10
200
 20
13565
 30
0
 11
2955
 21
13565
 31
0
  0
LINE
  5
BA
330
1F
100
AcDbEntity
  8
Beam
100
AcDbLine
 10
200
 20
13335
 30
0
 11
2955
 21
13335
 31
0
  0
LINE
  5
BB
330
1F
100
AcDbEntity
  8
Beam
100
AcDbLine
 10
3205
 20
13565
 30
0
 11
4300
 21
13565
 31
0
  0
LINE
  5
BC
330
1F
100
AcDbEntity
  8
Beam
100
AcDbLine
 10
3205
 20
13335
 30
0
 11
4300
 21
13335
 31
0
  0
LINE
  5
BD
330
1F
100
AcDbEntity
  8
Beam
100
AcDbLine
 10
4700
 20
13600
 30
0
 11
9400
 21
13600
 31
0
  0
LINE
  5
BE
330
1F
100
AcDbEntity
  8
Beam
100
AcDbLine
 10
4700
 20
13300
 30
0
 11
9400
 21
13300
 31
0
  0
LINE
  5
BF
330
1F
100
AcDbEntity
  8
Beam
100
AcDbLine
 10
9800
 20
13565
 30
0
 11
11665
 21
13565
 31
0
  0
LINE
  5
C0
330
1F
100
AcDbEntity
  8
Beam
100
AcDbLine
 10
9800
 20
13335
 30
0
 11
11435
 21
13335
 31
0
  0
LINE
  5
C1
330
1F
100
AcDbEntity
  8
Beam
100
AcDbLine
 10
11607.5
 20
13565
 30
0
 11
13300
 21
13565
 31
0
  0
LINE
  5
C2
330
1F
100
AcDbEntity
  8
Beam
100
AcDbLine
 10
11665
 20
13335
 30
0
 11
13300
 21
13335
 31
0
  0
LINE
  5
C3
330
1F
100
AcDbEntity
  8
Beam
100
AcDbLine
 10
13700
 20
13565
 30
0
 11
14750
 21
13565
 31
0
  0
LINE
  5
C4
330
1F
100
AcDbEntity
  8
Beam
100
AcDbLine
 10
13700
 20
13335
 30
0
 11
14750
 21
13335
 31
0
  0
LINE
  5
C5
330
1F
100
AcDbEntity
  8
Beam
100
AcDbLine
 10
125
 20
11995
 30
0
 11
2955
 21
11995
 31
0
  0
LINE
  5
C6
330
1F
100
AcDbEntity
  8
Beam
100
AcDbLine
 10
125
 20
11765
 30
0
 11
2955
 21
11765
 31
0
  0
LINE
  5
C7
330
1F
100
AcDbEntity
  8
Beam
100
AcDbLine
 10
9715
 20
11995
 30
0
 11
11435
 21
11995
 31
0
  0
LINE
  5
C8
330
1F
100
AcDbEntity
  8
Beam
100
AcDbLine
 10
9715
 20
11765
 30
0
 11
11665
 21
11765
 31
0
  0
LINE
  5
C9
330
1F
100
AcDbEntity
  8
Beam
100
AcDbLine
 10
11665
 20
11995
 30
0
 11
13375
 21
11995
 31
0
  0
LINE
  5
CA
330
1F
100
AcDbEntity
  8
Beam
100
AcDbLine
 10
11607.5
 20
11765
 30
0
 11
13375
 21
11765
 31
0
  0
LINE
  5
CB
330
1F
100
AcDbEntity
  8
Beam
100
AcDbLine
 10
-1250
 20
9065
 30
0
 11
-200
 21
9065
 31
0
  0
LINE
  5
CC
330
1F
100
AcDbEntity
  8
Beam
100
AcDbLine
 10
-1250
 20
8835
 30
0
 11
-200
 21
8835
 31
0
  0
LINE
  5
CD
330
1F
100
AcDbEntity
  8
Beam
100
AcDbLine
 10
200
 20
9065
 30
0
 11
2955
 21
9065
 31
0
  0
LINE
  5
CE
330
1F
100
AcDbEntity
  8
Beam
100
AcDbLine
 10
200
 20
8835
 30
0
 11
2955
 21
8835
 31
0
  0
LINE
  5
CF
330
1F
100
AcDbEntity
  8
Beam
100
AcDbLine
 10
3205
 20
9065
 30
0
 11
4300
 21
9065
 31
0
  0
LINE
  5
D0
330
1F
100
AcDbEntity
  8
Beam
100
AcDbLine
 10
3205
 20
8835
 30
0
 11
4300
 21
8835
 31
0
  0
LINE
  5
D1
330
1F
100
AcDbEntity
  8
Beam
100
AcDbLine
 10
4700
 20
9065
 30
0
 11
9400
 21
9065
 31
0
  0
LINE
  5
D2
330
1F
100
AcDbEntity
  8
Beam
100
AcDbLine
 10
4700
 20
8835
 30
0
 11
9400
 21
8835
 31
0
  0
LINE
  5
D3
330
1F
100
AcDbEntity
  8
Beam
100
AcDbLine
 10
9800
 20
9065
 30
0
 11
13300
 21
9065
 31
0
  0
LINE
  5
D4
330
1F
100
AcDbEntity
  8
Beam
100
AcDbLine
 10
9800
 20
8835
 30
0
 11
13300
 21
8835
 31
0
  0
LINE
  5
D5
330
1F
100
AcDbEntity
  8
Beam
100
AcDbLine
 10
13700
 20
9065
 30
0
 11
14750
 21
9065
 31
0
  0
LINE
  5
D6
330
1F
100
AcDbEntity
  8
Beam
100
AcDbLine
 10
13700
 20
8835
 30
0
 11
14750
 21
8835
 31
0
  0
LINE
  5
D7
330
1F
100
AcDbEntity
  8
Beam
100
AcDbLine
 10
125
 20
6335
 30
0
 11
1205
 21
6335
 31
0
  0
LINE
  5
D8
330
1F
100
AcDbEntity
  8
Beam
100
AcDbLine
 10
125
 20
6105
 30
0
 11
955
 21
6105
 31
0
  0
LINE
  5
D9
330
1F
100
AcDbEntity
  8
Beam
100
AcDbLine
 10
1142.5
 20
6335
 30
0
 11
2955
 21
6335
 31
0
  0
LINE
  5
DA
330
1F
100
AcDbEntity
  8
Beam
100
AcDbLine
 10
1205
 20
6105
 30
0
 11
2955
 21
6105
 31
0
  0
LINE
  5
DB
330
1F
100
AcDbEntity
  8
Beam
100
AcDbLine
 10
3205
 20
6335
 30
0
 11
4385
 21
6335
 31
0
  0
LINE
  5
DC
330
1F
100
AcDbEntity
  8
Beam
100
AcDbLine
 10
3205
 20
6105
 30
0
 11
4385
 21
6105
 31
0
  0
LINE
  5
DD
330
1F
100
AcDbEntity
  8
Beam
100
AcDbLine
 10
9725
 20
6335
 30
0
 11
11105
 21
6335
 31
0
  0
LINE
  5
DE
330
1F
100
AcDbEntity
  8
Beam
100
AcDbLine
 10
9725
 20
6105
 30
0
 11
10855
 21
6105
 31
0
  0
LINE
  5
DF
330
1F
100
AcDbEntity
  8
Beam
100
AcDbLine
 10
11042.5
 20
6335
 30
0
 11
13375
 21
6335
 31
0
  0
LINE
  5
E0
330
1F
100
AcDbEntity
  8
Beam
100
AcDbLine
 10
11105
 20
6105
 30
0
 11
13375
 21
6105
 31
0
  0
LINE
  5
E1
330
1F
100
AcDbEntity
  8
Beam
100
AcDbLine
 10
-1250
 20
4415
 30
0
 11
-200
 21
4415
 31
0
  0
LINE
  5
E2
330
1F
100
AcDbEntity
  8
Beam
100
AcDbLine
 10
-1250
 20
4185
 30
0
 11
-200
 21
4185
 31
0
  0
LINE
  5
E3
330
1F
100
AcDbEntity
  8
Beam
100
AcDbLine
 10
200
 20
4415
 30
0
 11
955
 21
4415
 31
0
  0
LINE
  5
E4
330
1F
100
AcDbEntity
  8
Beam
100
AcDbLine
 10
200
 20
4185
 30
0
 11
1205
 21
4185
 31
0
  0
LINE
  5
E5
330
1F
100
AcDbEntity
  8
Beam
100
AcDbLine
 10
1205
 20
4415
 30
0
 11
2955
 21
4415
 31
0
  0
LINE
  5
E6
330
1F
100
AcDbEntity
  8
Beam
100
AcDbLine
 10
1142.5
 20
4185
 30
0
 11
2955
 21
4185
 31
0
  0
LINE
  5
E7
330
1F
100
AcDbEntity
  8
Beam
100
AcDbLine
 10
3205
 20
4415
 30
0
 11
4385
 21
4415
 31
0
  0
LINE
  5
E8
330
1F
100
AcDbEntity
  8
Beam
100
AcDbLine
 10
3205
 20
4185
 30
0
 11
4615
 21
4185
 31
0
  0
LINE
  5
E9
330
1F
100
AcDbEntity
  8
Beam
100
AcDbLine
 10
4615
 20
4425
 30
0
 11
5200
 21
4425
 31
0
  0
LINE
  5
EA
330
1F
100
AcDbEntity
  8
Beam
100
AcDbLine
 10
4385
 20
4175
 30
0
 11
5200
 21
4175
 31
0
  0
LINE
  5
EB
330
1F
100
AcDbEntity
  8
Beam
100
AcDbLine
 10
5600
 20
4415
 30
0
 11
7900
 21
4415
 31
0
  0
LINE
  5
EC
330
1F
100
AcDbEntity
  8
Beam
100
AcDbLine
 10
5600
 20
4185
 30
0
 11
7900
 21
4185
 31
0
  0
LINE
  5
ED
330
1F
100
AcDbEntity
  8
Beam
100
AcDbLine
 10
8300
 20
4415
 30
0
 11
9495
 21
4415
 31
0
  0
LINE
  5
EE
330
1F
100
AcDbEntity
  8
Beam
100
AcDbLine
 10
8300
 20
4185
 30
0
 11
9725
 21
4185
 31
0
  0
LINE
  5
EF
330
1F
100
AcDbEntity
  8
Beam
100
AcDbLine
 10
9725
 20
4415
 30
0
 11
10855
 21
4415
 31
0
  0
LINE
  5
F0
330
1F
100
AcDbEntity
  8
Beam
100
AcDbLine
 10
9667.5
 20
4185
 30
0
 11
10855
 21
4185
 31
0
  0
LINE
  5
F1
330
1F
100
AcDbEntity
  8
Beam
100
AcDbLine
 10
11105
 20
4415
 30
0
 11
13300
 21
4415
 31
0
  0
LINE
  5
F2
330
1F
100
AcDbEntity
  8
Beam
100
AcDbLine
 10
11105
 20
4185
 30
0
 11
13300
 21
4185
 31
0
  0
LINE
  5
F3
330
1F
100
AcDbEntity
  8
Beam
100
AcDbLine
 10
13700
 20
4415
 30
0
 11
14750
 21
4415
 31
0
  0
LINE
  5
F4
330
1F
100
AcDbEntity
  8
Beam
100
AcDbLine
 10
13700
 20
4185
 30
0
 11
14750
 21
4185
 31
0
  0
LINE
  5
F5
330
1F
100
AcDbEntity
  8
Beam
100
AcDbLine
 10
-1250
 20
115
 30
0
 11
-200
 21
115
 31
0
  0
LINE
  5
F6
330
1F
100
AcDbEntity
  8
Beam
100
AcDbLine
 10
-1250
 20
-115
 30
0
 11
-200
 21
-115
 31
0
  0
LINE
  5
F7
330
1F
100
AcDbEntity
  8
Beam
100
AcDbLine
 10
200
 20
125
 30
0
 11
2290
 21
125
 31
0
  0
LINE
  5
F8
330
1F
100
AcDbEntity
  8
Beam
100
AcDbLine
 10
200
 20
-125
 30
0
 11
1385
 21
-125
 31
0
  0
LINE
  5
F9
330
1F
100
AcDbEntity
  8
Beam
100
AcDbLine
 10
1615
 20
-125
 30
0
 11
2290
 21
-125
 31
0
  0
LINE
  5
FA
330
1F
100
AcDbEntity
  8
Beam
100
AcDbLine
 10
1895
 20
125
 30
0
 11
2955
 21
125
 31
0
  0
LINE
  5
FB
330
1F
100
AcDbEntity
  8
Beam
100
AcDbLine
 10
3205
 20
125
 30
0
 11
5200
 21
125
 31
0
  0
LINE
  5
FC
330
1F
100
AcDbEntity
  8
Beam
100
AcDbLine
 10
1895
 20
-125
 30
0
 11
5200
 21
-125
 31
0
  0
LINE
  5
FD
330
1F
100
AcDbEntity
  8
Beam
100
AcDbLine
 10
5600
 20
125
 30
0
 11
7900
 21
125
 31
0
  0
LINE
  5
FE
330
1F
100
AcDbEntity
  8
Beam
100
AcDbLine
 10
5600
 20
-125
 30
0
 11
7900
 21
-125
 31
0
  0
LINE
  5
FF
330
1F
100
AcDbEntity
  8
Beam
100
AcDbLine
 10
8300
 20
125
 30
0
 11
10855
 21
125
 31
0
  0
LINE
  5
100
330
1F
100
AcDbEntity
  8
Beam
100
AcDbLine
 10
8300
 20
-125
 30
0
 11
11105
 21
-125
 31
0
  0
LINE
  5
101
330
1F
100
AcDbEntity
  8
Beam
100
AcDbLine
 10
11105
 20
125
 30
0
 11
12365
 21
125
 31
0
  0
LINE
  5
102
330
1F
100
AcDbEntity
  8
Beam
100
AcDbLine
 10
11042.5
 20
-125
 30
0
 11
12135
 21
-125
 31
0
  0
LINE
  5
103
330
1F
100
AcDbEntity
  8
Beam
100
AcDbLine
 10
12307.5
 20
125
 30
0
 11
13300
 21
125
 31
0
  0
LINE
  5
104
330
1F
100
AcDbEntity
  8
Beam
100
AcDbLine
 10
12365
 20
-125
 30
0
 11
13300
 21
-125
 31
0
  0
LINE
  5
105
330
1F
100
AcDbEntity
  8
Beam
100
AcDbLine
 10
13700
 20
115
 30
0
 11
14750
 21
115
 31
0
  0
LINE
  5
106
330
1F
100
AcDbEntity
  8
Beam
100
AcDbLine
 10
13700
 20
-115
 30
0
 11
14750
 21
-115
 31
0
  0
LINE
  5
107
330
1F
100
AcDbEntity
  8
Beam
100
AcDbLine
 10
125
 20
4100
 30
0
 11
125
 21
200
 31
0
  0
LINE
  5
108
330
1F
100
AcDbEntity
  8
Beam
100
AcDbLine
 10
-125
 20
4100
 30
0
 11
-125
 21
200
 31
0
  0
LINE
  5
109
330
1F
100
AcDbEntity
  8
Beam
100
AcDbLine
 10
125
 20
6220
 30
0
 11
125
 21
4500
 31
0
  0
LINE
  5
10A
330
1F
100
AcDbEntity
  8
Beam
100
AcDbLine
 10
-125
 20
6220
 30
0
 11
-125
 21
4500
 31
0
  0
LINE
  5
10B
330
1F
100
AcDbEntity
  8
Beam
100
AcDbLine
 10
125
 20
8750
 30
0
 11
125
 21
6335
 31
0
  0
LINE
  5
10C
330
1F
100
AcDbEntity
  8
Beam
100
AcDbLine
 10
-125
 20
8750
 30
0
 11
-125
 21
6105
 31
0
  0
LINE
  5
10D
330
1F
100
AcDbEntity
  8
Beam
100
AcDbLine
 10
125
 20
11880
 30
0
 11
125
 21
9150
 31
0
  0
LINE
  5
10E
330
1F
100
AcDbEntity
  8
Beam
100
AcDbLine
 10
-125
 20
11880
 30
0
 11
-125
 21
9150
 31
0
  0
LINE
  5
10F
330
1F
100
AcDbEntity
  8
Beam
100
AcDbLine
 10
125
 20
13250
 30
0
 11
125
 21
11995
 31
0
  0
LINE
  5
110
330
1F
100
AcDbEntity
  8
Beam
100
AcDbLine
 10
-125
 20
13250
 30
0
 11
-125
 21
11765
 31
0
  0
LINE
  5
111
330
1F
100
AcDbEntity
  8
Beam
100
AcDbLine
 10
125
 20
16400
 30
0
 11
125
 21
13650
 31
0
  0
LINE
  5
112
330
1F
100
AcDbEntity
  8
Beam
100
AcDbLine
 10
-125
 20
16400
 30
0
 11
-125
 21
13650
 31
0
  0
LINE
  5
113
330
1F
100
AcDbEntity
  8
Beam
100
AcDbLine
 10
125
 20
17900
 30
0
 11
125
 21
16525
 31
0
  0
LINE
  5
114
330
1F
100
AcDbEntity
  8
Beam
100
AcDbLine
 10
-125
 20
17900
 30
0
 11
-125
 21
16275
 31
0
  0
LINE
  5
115
330
1F
100
AcDbEntity
  8
Beam
100
AcDbLine
 10
1205
 20
6105
 30
0
 11
1205
 21
4415
 31
0
  0
LINE
  5
116
330
1F
100
AcDbEntity
  8
Beam
100
AcDbLine
 10
955
 20
6105
 30
0
 11
955
 21
4415
 31
0
  0
LINE
  5
117
330
1F
100
AcDbEntity
  8
Beam
100
AcDbLine
 10
1615
 20
-125
 30
0
 11
1615
 21
-1250
 31
0
  0
LINE
  5
118
330
1F
100
AcDbEntity
  8
Beam
100
AcDbLine
 10
1385
 20
-125
 30
0
 11
1385
 21
-1250
 31
0
  0
LINE
  5
119
330
1F
100
AcDbEntity
  8
Beam
100
AcDbLine
 10
3205
 20
4300
 30
0
 11
3205
 21
125
 31
0
  0
LINE
  5
11A
330
1F
100
AcDbEntity
  8
Beam
100
AcDbLine
 10
2955
 20
4185
 30
0
 11
2955
 21
125
 31
0
  0
LINE
  5
11B
330
1F
100
AcDbEntity
  8
Beam
100
AcDbLine
 10
3205
 20
6220
 30
0
 11
3205
 21
4415
 31
0
  0
LINE
  5
11C
330
1F
100
AcDbEntity
  8
Beam
100
AcDbLine
 10
2955
 20
6105
 30
0
 11
2955
 21
4415
 31
0
  0
LINE
  5
11D
330
1F
100
AcDbEntity
  8
Beam
100
AcDbLine
 10
3205
 20
8950
 30
0
 11
3205
 21
6335
 31
0
  0
LINE
  5
11E
330
1F
100
AcDbEntity
  8
Beam
100
AcDbLine
 10
2955
 20
8835
 30
0
 11
2955
 21
6335
 31
0
  0
LINE
  5
11F
330
1F
100
AcDbEntity
  8
Beam
100
AcDbLine
 10
3205
 20
11880
 30
0
 11
3205
 21
9065
 31
0
  0
LINE
  5
120
330
1F
100
AcDbEntity
  8
Beam
100
AcDbLine
 10
2955
 20
11765
 30
0
 11
2955
 21
9065
 31
0
  0
LINE
  5
121
330
1F
100
AcDbEntity
  8
Beam
100
AcDbLine
 10
3205
 20
13450
 30
0
 11
3205
 21
11765
 31
0
  0
LINE
  5
122
330
1F
100
AcDbEntity
  8
Beam
100
AcDbLine
 10
2955
 20
13335
 30
0
 11
2955
 21
11995
 31
0
  0
LINE
  5
123
330
1F
100
AcDbEntity
  8
Beam
100
AcDbLine
 10
3205
 20
16400
 30
0
 11
3205
 21
13565
 31
0
  0
LINE
  5
124
330
1F
100
AcDbEntity
  8
Beam
100
AcDbLine
 10
2955
 20
16275
 30
0
 11
2955
 21
13565
 31
0
  0
LINE
  5
125
330
1F
100
AcDbEntity
  8
Beam
100
AcDbLine
 10
3205
 20
17975
 30
0
 11
3205
 21
16275
 31
0
  0
LINE
  5
126
330
1F
100
AcDbEntity
  8
Beam
100
AcDbLine
 10
2955
 20
17975
 30
0
 11
2955
 21
16525
 31
0
  0
LINE
  5
127
330
1F
100
AcDbEntity
  8
Beam
100
AcDbLine
 10
4615
 20
6220
 30
0
 11
4615
 21
4425
 31
0
  0
LINE
  5
128
330
1F
100
AcDbEntity
  8
Beam
100
AcDbLine
 10
4385
 20
6105
 30
0
 11
4385
 21
4415
 31
0
  0
LINE
  5
129
330
1F
100
AcDbEntity
  8
Beam
100
AcDbLine
 10
4615
 20
8750
 30
0
 11
4615
 21
6105
 31
0
  0
LINE
  5
12A
330
1F
100
AcDbEntity
  8
Beam
100
AcDbLine
 10
4385
 20
8750
 30
0
 11
4385
 21
6335
 31
0
  0
LINE
  5
12B
330
1F
100
AcDbEntity
  8
Beam
100
AcDbLine
 10
4615
 20
13250
 30
0
 11
4615
 21
9150
 31
0
  0
LINE
  5
12C
330
1F
100
AcDbEntity
  8
Beam
100
AcDbLine
 10
4385
 20
13250
 30
0
 11
4385
 21
9150
 31
0
  0
LINE
  5
12D
330
1F
100
AcDbEntity
  8
Beam
100
AcDbLine
 10
4615
 20
17900
 30
0
 11
4615
 21
13650
 31
0
  0
LINE
  5
12E
330
1F
100
AcDbEntity
  8
Beam
100
AcDbLine
 10
4385
 20
17900
 30
0
 11
4385
 21
13650
 31
0
  0
LINE
  5
12F
330
1F
100
AcDbEntity
  8
Beam
100
AcDbLine
 10
5515
 20
-200
 30
0
 11
5515
 21
-1250
 31
0
  0
LINE
  5
130
330
1F
100
AcDbEntity
  8
Beam
100
AcDbLine
 10
5285
 20
-200
 30
0
 11
5285
 21
-1250
 31
0
  0
LINE
  5
131
330
1F
100
AcDbEntity
  8
Beam
100
AcDbLine
 10
5515
 20
2100
 30
0
 11
5515
 21
200
 31
0
  0
LINE
  5
132
330
1F
100
AcDbEntity
  8
Beam
100
AcDbLine
 10
5285
 20
2100
 30
0
 11
5285
 21
200
 31
0
  0
LINE
  5
133
330
1F
100
AcDbEntity
  8
Beam
100
AcDbLine
 10
5515
 20
4100
 30
0
 11
5515
 21
2100
 31
0
  0
LINE
  5
134
330
1F
100
AcDbEntity
  8
Beam
100
AcDbLine
 10
5285
 20
4100
 30
0
 11
5285
 21
2100
 31
0
  0
LINE
  5
135
330
1F
100
AcDbEntity
  8
Beam
100
AcDbLine
 10
8250
 20
-200
 30
0
 11
8250
 21
-1250
 31
0
  0
LINE
  5
136
330
1F
100
AcDbEntity
  8
Beam
100
AcDbLine
 10
7950
 20
-200
 30
0
 11
7950
 21
-1250
 31
0
  0
LINE
  5
137
330
1F
100
AcDbEntity
  8
Beam
100
AcDbLine
 10
8250
 20
2100
 30
0
 11
8250
 21
200
 31
0
  0
LINE
  5
138
330
1F
100
AcDbEntity
  8
Beam
100
AcDbLine
 10
7950
 20
2100
 30
0
 11
7950
 21
200
 31
0
  0
LINE
  5
139
330
1F
100
AcDbEntity
  8
Beam
100
AcDbLine
 10
8250
 20
2200
 30
0
 11
8250
 21
2100
 31
0
  0
LINE
  5
13A
330
1F
100
AcDbEntity
  8
Beam
100
AcDbLine
 10
7950
 20
2200
 30
0
 11
7950
 21
2100
 31
0
  0
LINE
  5
13B
330
1F
100
AcDbEntity
  8
Beam
100
AcDbLine
 10
8250
 20
3700
 30
0
 11
8250
 21
2400
 31
0
  0
LINE
  5
13C
330
1F
100
AcDbEntity
  8
Beam
100
AcDbLine
 10
7950
 20
3700
 30
0
 11
7950
 21
2400
 31
0
  0
LINE
  5
13D
330
1F
100
AcDbEntity
  8
Beam
100
AcDbLine
 10
8250
 20
4100
 30
0
 11
8250
 21
3900
 31
0
  0
LINE
  5
13E
330
1F
100
AcDbEntity
  8
Beam
100
AcDbLine
 10
7950
 20
4100
 30
0
 11
7950
 21
3900
 31
0
  0
LINE
  5
13F
330
1F
100
AcDbEntity
  8
Beam
100
AcDbLine
 10
9725
 20
6220
 30
0
 11
9725
 21
4415
 31
0
  0
LINE
  5
140
330
1F
100
AcDbEntity
  8
Beam
100
AcDbLine
 10
9495
 20
6220
 30
0
 11
9495
 21
4415
 31
0
  0
LINE
  5
141
330
1F
100
AcDbEntity
  8
Beam
100
AcDbLine
 10
9725
 20
8750
 30
0
 11
9725
 21
6335
 31
0
  0
LINE
  5
142
330
1F
100
AcDbEntity
  8
Beam
100
AcDbLine
 10
9495
 20
8750
 30
0
 11
9495
 21
6105
 31
0
  0
LINE
  5
143
330
1F
100
AcDbEntity
  8
Beam
100
AcDbLine
 10
9715
 20
11880
 30
0
 11
9715
 21
9150
 31
0
  0
LINE
  5
144
330
1F
100
AcDbEntity
  8
Beam
100
AcDbLine
 10
9485
 20
11880
 30
0
 11
9485
 21
9150
 31
0
  0
LINE
  5
145
330
1F
100
AcDbEntity
  8
Beam
100
AcDbLine
 10
9715
 20
13250
 30
0
 11
9715
 21
11995
 31
0
  0
LINE
  5
146
330
1F
100
AcDbEntity
  8
Beam
100
AcDbLine
 10
9485
 20
13250
 30
0
 11
9485
 21
11765
 31
0
  0
LINE
  5
147
330
1F
100
AcDbEntity
  8
Beam
100
AcDbLine
 10
9715
 20
17900
 30
0
 11
9715
 21
13650
 31
0
  0
LINE
  5
148
330
1F
100
AcDbEntity
  8
Beam
100
AcDbLine
 10
9485
 20
17900
 30
0
 11
9485
 21
13650
 31
0
  0
LINE
  5
149
330
1F
100
AcDbEntity
  8
Beam
100
AcDbLine
 10
11105
 20
4300
 30
0
 11
11105
 21
125
 31
0
  0
LINE
  5
14A
330
1F
100
AcDbEntity
  8
Beam
100
AcDbLine
 10
10855
 20
4185
 30
0
 11
10855
 21
125
 31
0
  0
LINE
  5
14B
330
1F
100
AcDbEntity
  8
Beam
100
AcDbLine
 10
11105
 20
6105
 30
0
 11
11105
 21
4415
 31
0
  0
LINE
  5
14C
330
1F
100
AcDbEntity
  8
Beam
100
AcDbLine
 10
10855
 20
6105
 30
0
 11
10855
 21
4415
 31
0
  0
LINE
  5
14D
330
1F
100
AcDbEntity
  8
Beam
100
AcDbLine
 10
11665
 20
13335
 30
0
 11
11665
 21
11995
 31
0
  0
LINE
  5
14E
330
1F
100
AcDbEntity
  8
Beam
100
AcDbLine
 10
11435
 20
13335
 30
0
 11
11435
 21
11995
 31
0
  0
LINE
  5
14F
330
1F
100
AcDbEntity
  8
Beam
100
AcDbLine
 10
12365
 20
-125
 30
0
 11
12365
 21
-1250
 31
0
  0
LINE
  5
150
330
1F
100
AcDbEntity
  8
Beam
100
AcDbLine
 10
12135
 20
-125
 30
0
 11
12135
 21
-1250
 31
0
  0
LINE
  5
151
330
1F
100
AcDbEntity
  8
Beam
100
AcDbLine
 10
13625
 20
4100
 30
0
 11
13625
 21
200
 31
0
  0
LINE
  5
152
330
1F
100
AcDbEntity
  8
Beam
100
AcDbLine
 10
13375
 20
4100
 30
0
 11
13375
 21
200
 31
0
  0
LINE
  5
153
330
1F
100
AcDbEntity
  8
Beam
100
AcDbLine
 10
13625
 20
6220
 30
0
 11
13625
 21
4500
 31
0
  0
LINE
  5
154
330
1F
100
AcDbEntity
  8
Beam
100
AcDbLine
 10
13375
 20
6105
 30
0
 11
13375
 21
4500
 31
0
  0
LINE
  5
155
330
1F
100
AcDbEntity
  8
Beam
100
AcDbLine
 10
13625
 20
8750
 30
0
 11
13625
 21
6105
 31
0
  0
LINE
  5
156
330
1F
100
AcDbEntity
  8
Beam
100
AcDbLine
 10
13375
 20
8750
 30
0
 11
13375
 21
6335
 31
0
  0
LINE
  5
157
330
1F
100
AcDbEntity
  8
Beam
100
AcDbLine
 10
13625
 20
11880
 30
0
 11
13625
 21
9150
 31
0
  0
LINE
  5
158
330
1F
100
AcDbEntity
  8
Beam
100
AcDbLine
 10
13375
 20
11765
 30
0
 11
13375
 21
9150
 31
0
  0
LINE
  5
159
330
1F
100
AcDbEntity
  8
Beam
100
AcDbLine
 10
13625
 20
13250
 30
0
 11
13625
 21
11765
 31
0
  0
LINE
  5
15A
330
1F
100
AcDbEntity
  8
Beam
100
AcDbLine
 10
13375
 20
13250
 30
0
 11
13375
 21
11995
 31
0
  0
LINE
  5
15B
330
1F
100
AcDbEntity
  8
Beam
100
AcDbLine
 10
13625
 20
17900
 30
0
 11
13625
 21
13650
 31
0
  0
LINE
  5
15C
330
1F
100
AcDbEntity
  8
Beam
100
AcDbLine
 10
13375
 20
17900
 30
0
 11
13375
 21
13650
 31
0
  0
LINE
  5
15D
330
1F
100
AcDbEntity
  8
Beam
100
AcDbLine
 10
-1250
 20
18215
 30
0
 11
-1250
 21
17985
 31
0
  0
LINE
  5
15E
330
1F
100
AcDbEntity
  8
Beam
100
AcDbLine
 10
14750
 20
18215
 30
0
 11
14750
 21
17985
 31
0
  0
LINE
  5
15F
330
1F
100
AcDbEntity
  8
Beam
100
AcDbLine
 10
-1250
 20
13565
 30
0
 11
-1250
 21
13335
 31
0
  0
LINE
  5
160
330
1F
100
AcDbEntity
  8
Beam
100
AcDbLine
 10
14750
 20
13565
 30
0
 11
14750
 21
13335
 31
0
  0
LINE
  5
161
330
1F
100
AcDbEntity
  8
Beam
100
AcDbLine
 10
-1250
 20
9065
 30
0
 11
-1250
 21
8835
 31
0
  0
LINE
  5
162
330
1F
100
AcDbEntity
  8
Beam
100
AcDbLine
 10
14750
 20
9065
 30
0
 11
14750
 21
8835
 31
0
  0
LINE
  5
163
330
1F
100
AcDbEntity
  8
Beam
100
AcDbLine
 10
-1250
 20
4415
 30
0
 11
-1250
 21
4185
 31
0
  0
LINE
  5
164
330
1F
100
AcDbEntity
  8
Beam
100
AcDbLine
 10
14750
 20
4415
 30
0
 11
14750
 21
4185
 31
0
  0
LINE
  5
165
330
1F
100
AcDbEntity
  8
Beam
100
AcDbLine
 10
-1250
 20
115
 30
0
 11
-1250
 21
-115
 31
0
  0
LINE
  5
166
330
1F
100
AcDbEntity
  8
Beam
100
AcDbLine
 10
14750
 20
115
 30
0
 11
14750
 21
-115
 31
0
  0
LINE
  5
167
330
1F
100
AcDbEntity
  8
Beam
100
AcDbLine
 10
1615
 20
-1250
 30
0
 11
1385
 21
-1250
 31
0
  0
LINE
  5
168
330
1F
100
AcDbEntity
  8
Beam
100
AcDbLine
 10
5515
 20
-1250
 30
0
 11
5285
 21
-1250
 31
0
  0
LINE
  5
169
330
1F
100
AcDbEntity
  8
Beam
100
AcDbLine
 10
8250
 20
-1250
 30
0
 11
7950
 21
-1250
 31
0
  0
LINE
  5
16A
330
1F
100
AcDbEntity
  8
Beam
100
AcDbLine
 10
12365
 20
-1250
 30
0
 11
12135
 21
-1250
 31
0
  0
TEXT
  5
16B
330
1F
100
AcDbEntity
  8
Beam Nos
100
AcDbText
 10
-875.06747436523438
 20
18261.822033898305
 30
0
 40
200
  1
B1
 72
1
 11
-725
 21
18215
 31
0
  7
SC-BBS1
100
AcDbText
 73
1
  0
TEXT
  5
16C
330
1F
100
AcDbEntity
  8
Beam Nos
100
AcDbText
 10
2065.0731201171875
 20
18271.822033898305
 30
0
 40
200
  1
B2
 72
1
 11
2237.5
 21
18225
 31
0
  7
SC-BBS1
100
AcDbText
 73
1
  0
TEXT
  5
16D
330
1F
100
AcDbEntity
  8
Beam Nos
100
AcDbText
 10
6890.4846343994141
 20
18271.822033898305
 30
0
 40
200
  1
B3
 72
1
 11
7062.5
 21
18225
 31
0
  7
SC-BBS1
100
AcDbText
 73
1
  0
TEXT
  5
16E
330
1F
100
AcDbEntity
  8
Beam Nos
100
AcDbText
 10
11376.201385498047
 20
18271.822033898305
 30
0
 40
200
  1
B4
 72
1
 11
11550
 21
18225
 31
0
  7
SC-BBS1
100
AcDbText
 73
1
  0
TEXT
  5
16F
330
1F
100
AcDbEntity
  8
Beam Nos
100
AcDbText
 10
14052.024429321289
 20
18261.822033898305
 30
0
 40
200
  1
B5
 72
1
 11
14225
 21
18215
 31
0
  7
SC-BBS1
100
AcDbText
 73
1
  0
TEXT
  5
170
330
1F
100
AcDbEntity
  8
Beam Nos
100
AcDbText
 10
1367.1615905761719
 20
16571.822033898305
 30
0
 40
200
  1
B6
 72
1
 11
1540
 21
16525
 31
0
  7
SC-BBS1
100
AcDbText
 73
1
  0
TEXT
  5
171
330
1F
100
AcDbEntity
  8
Beam Nos
100
AcDbText
 10
-898.66145324707031
 20
13611.822033898305
 30
0
 40
200
  1
B7
 72
1
 11
-725
 21
13565
 31
0
  7
SC-BBS1
100
AcDbText
 73
1
  0
TEXT
  5
172
330
1F
100
AcDbEntity
  8
Beam Nos
100
AcDbText
 10
2077.0244293212891
 20
13611.822033898305
 30
0
 40
200
  1
B8
 72
1
 11
2250
 21
13565
 31
0
  7
SC-BBS1
100
AcDbText
 73
1
  0
TEXT
  5
173
330
1F
100
AcDbEntity
  8
Beam Nos
100
AcDbText
 10
6877.7102966308594
 20
13646.822033898305
 30
0
 40
200
  1
B9
 72
1
 11
7050
 21
13600
 31
0
  7
SC-BBS1
100
AcDbText
 73
1
  0
TEXT
  5
174
330
1F
100
AcDbEntity
  8
Beam Nos
100
AcDbText
 10
11301.694885253906
 20
13611.822033898305
 30
0
 40
200
  1
B10
 72
1
 11
11550
 21
13565
 31
0
  7
SC-BBS1
100
AcDbText
 73
1
  0
TEXT
  5
175
330
1F
100
AcDbEntity
  8
Beam Nos
100
AcDbText
 10
13998.642761230469
 20
13611.822033898305
 30
0
 40
200
  1
B11
 72
1
 11
14225
 21
13565
 31
0
  7
SC-BBS1
100
AcDbText
 73
1
  0
TEXT
  5
176
330
1F
100
AcDbEntity
  8
Beam Nos
100
AcDbText
 10
1291.2833709716797
 20
12041.822033898305
 30
0
 40
200
  1
B12
 72
1
 11
1540
 21
11995
 31
0
  7
SC-BBS1
100
AcDbText
 73
1
  0
TEXT
  5
177
330
1F
100
AcDbEntity
  8
Beam Nos
100
AcDbText
 10
11296.694885253906
 20
12041.822033898305
 30
0
 40
200
  1
B13
 72
1
 11
11545
 21
11995
 31
0
  7
SC-BBS1
100
AcDbText
 73
1
  0
TEXT
  5
178
330
1F
100
AcDbEntity
  8
Beam Nos
100
AcDbText
 10
-975.08837890625
 20
9111.8220338983047
 30
0
 40
200
  1
B14
 72
1
 11
-725
 21
9065
 31
0
  7
SC-BBS1
100
AcDbText
 73
1
  0
TEXT
  5
179
330
1F
100
AcDbEntity
  8
Beam Nos
100
AcDbText
 10
2000.7346649169922
 20
9111.8220338983047
 30
0
 40
200
  1
B15
 72
1
 11
2250
 21
9065
 31
0
  7
SC-BBS1
100
AcDbText
 73
1
  0
TEXT
  5
17A
330
1F
100
AcDbEntity
  8
Beam Nos
100
AcDbText
 10
6800.8718414306641
 20
9111.8220338983047
 30
0
 40
200
  1
B16
 72
1
 11
7050
 21
9065
 31
0
  7
SC-BBS1
100
AcDbText
 73
1
  0
TEXT
  5
17B
330
1F
100
AcDbEntity
  8
Beam Nos
100
AcDbText
 10
11300.048797607422
 20
9111.8220338983047
 30
0
 40
200
  1
B17
 72
1
 11
11550
 21
9065
 31
0
  7
SC-BBS1
100
AcDbText
 73
1
  0
TEXT
  5
17C
330
1F
100
AcDbEntity
  8
Beam Nos
100
AcDbText
 10
13975.734664916992
 20
9111.8220338983047
 30
0
 40
200
  1
B18
 72
1
 11
14225
 21
9065
 31
0
  7
SC-BBS1
100
AcDbText
 73
1
  0
TEXT
  5
17D
330
1F
100
AcDbEntity
  8
Beam Nos
100
AcDbText
 10
1291.4205322265625
 20
6381.8220338983047
 30
0
 40
200
  1
B19
 72
1
 11
1540
 21
6335
 31
0
  7
SC-BBS1
100
AcDbText
 73
1
  0
TEXT
  5
17E
330
1F
100
AcDbEntity
  8
Beam Nos
100
AcDbText
 10
3546.6948852539063
 20
6381.8220338983047
 30
0
 40
200
  1
B20
 72
1
 11
3795
 21
6335
 31
0
  7
SC-BBS1
100
AcDbText
 73
1
  0
TEXT
  5
17F
330
1F
100
AcDbEntity
  8
Beam Nos
100
AcDbText
 10
11323.642761230469
 20
6381.8220338983047
 30
0
 40
200
  1
B21
 72
1
 11
11550
 21
6335
 31
0
  7
SC-BBS1
100
AcDbText
 73
1
  0
TEXT
  5
180
330
1F
100
AcDbEntity
  8
Beam Nos
100
AcDbText
 10
-973.71662902832031
 20
4461.8220338983047
 30
0
 40
200
  1
B22
 72
1
 11
-725
 21
4415
 31
0
  7
SC-BBS1
100
AcDbText
 73
1
  0
TEXT
  5
181
330
1F
100
AcDbEntity
  8
Beam Nos
100
AcDbText
 10
1329.1948852539063
 20
4461.8220338983047
 30
0
 40
200
  1
B23
 72
1
 11
1577.5
 21
4415
 31
0
  7
SC-BBS1
100
AcDbText
 73
1
  0
TEXT
  5
182
330
1F
100
AcDbEntity
  8
Beam Nos
100
AcDbText
 10
3544.91162109375
 20
4461.8220338983047
 30
0
 40
200
  1
B24
 72
1
 11
3795
 21
4415
 31
0
  7
SC-BBS1
100
AcDbText
 73
1
  0
TEXT
  5
183
330
1F
100
AcDbEntity
  8
Beam Nos
100
AcDbText
 10
4658.2346649169922
 20
4471.8220338983047
 30
0
 40
200
  1
B25
 72
1
 11
4907.5
 21
4425
 31
0
  7
SC-BBS1
100
AcDbText
 73
1
  0
TEXT
  5
184
330
1F
100
AcDbEntity
  8
Beam Nos
100
AcDbText
 10
6500.8718414306641
 20
4461.8220338983047
 30
0
 40
200
  1
B26
 72
1
 11
6750
 21
4415
 31
0
  7
SC-BBS1
100
AcDbText
 73
1
  0
TEXT
  5
185
330
1F
100
AcDbEntity
  8
Beam Nos
100
AcDbText
 10
10550.048797607422
 20
4461.8220338983047
 30
0
 40
200
  1
B27
 72
1
 11
10800
 21
4415
 31
0
  7
SC-BBS1
100
AcDbText
 73
1
  0
TEXT
  5
186
330
1F
100
AcDbEntity
  8
Beam Nos
100
AcDbText
 10
13975.734664916992
 20
4461.8220338983047
 30
0
 40
200
  1
B28
 72
1
 11
14225
 21
4415
 31
0
  7
SC-BBS1
100
AcDbText
 73
1
  0
TEXT
  5
187
330
1F
100
AcDbEntity
  8
Beam Nos
100
AcDbText
 10
-973.5794677734375
 20
161.82203389830508
 30
0
 40
200
  1
B29
 72
1
 11
-725
 21
115
 31
0
  7
SC-BBS1
100
AcDbText
 73
1
  0
TEXT
  5
188
330
1F
100
AcDbEntity
  8
Beam Nos
100
AcDbText
 10
2451.6948852539063
 20
171.82203389830508
 30
0
 40
200
  1
B30
 72
1
 11
2700
 21
125
 31
0
  7
SC-BBS1
100
AcDbText
 73
1
  0
TEXT
  5
189
330
1F
100
AcDbEntity
  8
Beam Nos
100
AcDbText
 10
6523.6427612304688
 20
171.82203389830508
 30
0
 40
200
  1
B31
 72
1
 11
6750
 21
125
 31
0
  7
SC-BBS1
100
AcDbText
 73
1
  0
TEXT
  5
18A
330
1F
100
AcDbEntity
  8
Beam Nos
100
AcDbText
 10
10551.28337097168
 20
171.82203389830508
 30
0
 40
200
  1
B32
 72
1
 11
10800
 21
125
 31
0
  7
SC-BBS1
100
AcDbText
 73
1
  0
TEXT
  5
18B
330
1F
100
AcDbEntity
  8
Beam Nos
100
AcDbText
 10
13976.694885253906
 20
161.82203389830508
 30
0
 40
200
  1
B33
 72
1
 11
14225
 21
115
 31
0
  7
SC-BBS1
100
AcDbText
 73
1
  0
TEXT
  5
18C
330
1F
100
AcDbEntity
  8
Beam Nos
100
AcDbText
 10
-171.82203389830511
 20
1899.91162109375
 30
0
 40
200
  1
B34
 50
90
 72
1
 11
-125
 21
2150
 31
0
  7
SC-BBS1
100
AcDbText
 73
1
  0
TEXT
  5
18D
330
1F
100
AcDbEntity
  8
Beam Nos
100
AcDbText
 10
-171.82203389830511
 20
6375.7346649169922
 30
0
 40
200
  1
B35
 50
90
 72
1
 11
-125
 21
6625
 31
0
  7
SC-BBS1
100
AcDbText
 73
1
  0
TEXT
  5
18E
330
1F
100
AcDbEntity
  8
Beam Nos
100
AcDbText
 10
-171.82203389830511
 20
10950.871841430664
 30
0
 40
200
  1
B36
 50
90
 72
1
 11
-125
 21
11200
 31
0
  7
SC-BBS1
100
AcDbText
 73
1
  0
TEXT
  5
18F
330
1F
100
AcDbEntity
  8
Beam Nos
100
AcDbText
 10
-171.82203389830511
 20
15525.048797607422
 30
0
 40
200
  1
B37
 50
90
 72
1
 11
-125
 21
15775
 31
0
  7
SC-BBS1
100
AcDbText
 73
1
  0
TEXT
  5
190
330
1F
100
AcDbEntity
  8
Beam Nos
100
AcDbText
 10
908.17796610169489
 20
5010.7346649169922
 30
0
 40
200
  1
B38
 50
90
 72
1
 11
955
 21
5260
 31
0
  7
SC-BBS1
100
AcDbText
 73
1
  0
TEXT
  5
191
330
1F
100
AcDbEntity
  8
Beam Nos
100
AcDbText
 10
1338.1779661016949
 20
-936.0794677734375
 30
0
 40
200
  1
B39
 50
90
 72
1
 11
1385
 21
-687.5
 31
0
  7
SC-BBS1
100
AcDbText
 73
1
  0
TEXT
  5
192
330
1F
100
AcDbEntity
  8
Beam Nos
100
AcDbText
 10
2908.1779661016949
 20
4231.6948852539063
 30
0
 40
200
  1
B40
 50
90
 72
1
 11
2955
 21
4480
 31
0
  7
SC-BBS1
100
AcDbText
 73
1
  0
TEXT
  5
193
330
1F
100
AcDbEntity
  8
Beam Nos
100
AcDbText
 10
2908.1779661016949
 20
10973.642761230469
 30
0
 40
200
  1
B41
 50
90
 72
1
 11
2955
 21
11200
 31
0
  7
SC-BBS1
100
AcDbText
 73
1
  0
TEXT
  5
194
330
1F
100
AcDbEntity
  8
Beam Nos
100
AcDbText
 10
2908.1779661016949
 20
15521.28337097168
 30
0
 40
200
  1
B42
 50
90
 72
1
 11
2955
 21
15770
 31
0
  7
SC-BBS1
100
AcDbText
 73
1
  0
TEXT
  5
195
330
1F
100
AcDbEntity
  8
Beam Nos
100
AcDbText
 10
4338.1779661016953
 20
6334.1948852539063
 30
0
 40
200
  1
B43
 50
90
 72
1
 11
4385
 21
6582.5
 31
0
  7
SC-BBS1
100
AcDbText
 73
1
  0
TEXT
  5
196
330
1F
100
AcDbEntity
  8
Beam Nos
100
AcDbText
 10
4338.1779661016953
 20
10949.91162109375
 30
0
 40
200
  1
B44
 50
90
 72
1
 11
4385
 21
11200
 31
0
  7
SC-BBS1
100
AcDbText
 73
1
  0
TEXT
  5
197
330
1F
100
AcDbEntity
  8
Beam Nos
100
AcDbText
 10
4338.1779661016953
 20
15525.734664916992
 30
0
 40
200
  1
B45
 50
90
 72
1
 11
4385
 21
15775
 31
0
  7
SC-BBS1
100
AcDbText
 73
1
  0
TEXT
  5
198
330
1F
100
AcDbEntity
  8
Beam Nos
100
AcDbText
 10
5238.1779661016953
 20
-974.12815856933594
 30
0
 40
200
  1
B46
 50
90
 72
1
 11
5285
 21
-725
 31
0
  7
SC-BBS1
100
AcDbText
 73
1
  0
TEXT
  5
199
330
1F
100
AcDbEntity
  8
Beam Nos
100
AcDbText
 10
5238.1779661016953
 20
1900.0487976074219
 30
0
 40
200
  1
B47
 50
90
 72
1
 11
5285
 21
2150
 31
0
  7
SC-BBS1
100
AcDbText
 73
1
  0
TEXT
  5
19A
330
1F
100
AcDbEntity
  8
Beam Nos
100
AcDbText
 10
7903.1779661016953
 20
-974.26533508300781
 30
0
 40
200
  1
B48
 50
90
 72
1
 11
7950
 21
-725
 31
0
  7
SC-BBS1
100
AcDbText
 73
1
  0
TEXT
  5
19B
330
1F
100
AcDbEntity
  8
Beam Nos
100
AcDbText
 10
7903.1779661016953
 20
951.4205322265625
 30
0
 40
200
  1
B49
 50
90
 72
1
 11
7950
 21
1200
 31
0
  7
SC-BBS1
100
AcDbText
 73
1
  0
TEXT
  5
19C
330
1F
100
AcDbEntity
  8
Beam Nos
100
AcDbText
 10
7903.1779661016953
 20
2801.6948852539063
 30
0
 40
200
  1
B50
 50
90
 72
1
 11
7950
 21
3050
 31
0
  7
SC-BBS1
100
AcDbText
 73
1
  0
TEXT
  5
19D
330
1F
100
AcDbEntity
  8
Beam Nos
100
AcDbText
 10
7903.1779661016953
 20
3773.6427612304688
 30
0
 40
200
  1
B51
 50
90
 72
1
 11
7950
 21
4000
 31
0
  7
SC-BBS1
100
AcDbText
 73
1
  0
TEXT
  5
19E
330
1F
100
AcDbEntity
  8
Beam Nos
100
AcDbText
 10
9448.1779661016953
 20
6333.78337097168
 30
0
 40
200
  1
B52
 50
90
 72
1
 11
9495
 21
6582.5
 31
0
  7
SC-BBS1
100
AcDbText
 73
1
  0
TEXT
  5
19F
330
1F
100
AcDbEntity
  8
Beam Nos
100
AcDbText
 10
9438.1779661016953
 20
10951.694885253906
 30
0
 40
200
  1
B53
 50
90
 72
1
 11
9485
 21
11200
 31
0
  7
SC-BBS1
100
AcDbText
 73
1
  0
TEXT
  5
1A0
330
1F
100
AcDbEntity
  8
Beam Nos
100
AcDbText
 10
9438.1779661016953
 20
15524.91162109375
 30
0
 40
200
  1
B54
 50
90
 72
1
 11
9485
 21
15775
 31
0
  7
SC-BBS1
100
AcDbText
 73
1
  0
TEXT
  5
1A1
330
1F
100
AcDbEntity
  8
Beam Nos
100
AcDbText
 10
10808.177966101695
 20
1905.7346649169922
 30
0
 40
200
  1
B55
 50
90
 72
1
 11
10855
 21
2155
 31
0
  7
SC-BBS1
100
AcDbText
 73
1
  0
TEXT
  5
1A2
330
1F
100
AcDbEntity
  8
Beam Nos
100
AcDbText
 10
10808.177966101695
 20
5010.8718414306641
 30
0
 40
200
  1
B56
 50
90
 72
1
 11
10855
 21
5260
 31
0
  7
SC-BBS1
100
AcDbText
 73
1
  0
TEXT
  5
1A3
330
1F
100
AcDbEntity
  8
Beam Nos
100
AcDbText
 10
11388.177966101695
 20
12415.048797607422
 30
0
 40
200
  1
B57
 50
90
 72
1
 11
11435
 21
12665
 31
0
  7
SC-BBS1
100
AcDbText
 73
1
  0
TEXT
  5
1A4
330
1F
100
AcDbEntity
  8
Beam Nos
100
AcDbText
 10
12088.177966101695
 20
-936.76533508300781
 30
0
 40
200
  1
B58
 50
90
 72
1
 11
12135
 21
-687.5
 31
0
  7
SC-BBS1
100
AcDbText
 73
1
  0
TEXT
  5
1A5
330
1F
100
AcDbEntity
  8
Beam Nos
100
AcDbText
 10
13328.177966101695
 20
1901.4205322265625
 30
0
 40
200
  1
B59
 50
90
 72
1
 11
13375
 21
2150
 31
0
  7
SC-BBS1
100
AcDbText
 73
1
  0
TEXT
  5
1A6
330
1F
100
AcDbEntity
  8
Beam Nos
100
AcDbText
 10
13328.177966101695
 20
6376.6948852539063
 30
0
 40
200
  1
B60
 50
90
 72
1
 11
13375
 21
6625
 31
0
  7
SC-BBS1
100
AcDbText
 73
1
  0
TEXT
  5
1A7
330
1F
100
AcDbEntity
  8
Beam Nos
100
AcDbText
 10
13328.177966101695
 20
10973.642761230469
 30
0
 40
200
  1
B61
 50
90
 72
1
 11
13375
 21
11200
 31
0
  7
SC-BBS1
100
AcDbText
 73
1
  0
TEXT
  5
1A8
330
1F
100
AcDbEntity
  8
Beam Nos
100
AcDbText
 10
13328.177966101695
 20
15526.28337097168
 30
0
 40
200
  1
B62
 50
90
 72
1
 11
13375
 21
15775
 31
0
  7
SC-BBS1
100
AcDbText
 73
1
  0
LINE
  5
1A9
330
1F
100
AcDbEntity
  8
Grid Line
  6
SCCenter
100
AcDbLine
 10
-2500
 20
0
 30
0
 11
16000
 21
0
 31
0
  0
CIRCLE
  5
1AA
330
1F
100
AcDbEntity
  8
Grid Line
100
AcDbCircle
 10
-2900
 20
0
 30
0
 40
400
  0
TEXT
  5
1AB
330
1F
100
AcDbEntity
  8
Grid Line
100
AcDbText
 10
-2998.8474521636963
 20
-148.4745762348175
 30
0
 40
300
  1
1
 72
4
 11
-2900
 21
0
 31
0
  7
Standard
100
AcDbText
 73
2
  0
LINE
  5
1AC
330
1F
100
AcDbEntity
  8
Grid Line
  6
SCCenter
100
AcDbLine
 10
-2500
 20
2300
 30
0
 11
16000
 21
2300
 31
0
  0
CIRCLE
  5
1AD
330
1F
100
AcDbEntity
  8
Grid Line
100
AcDbCircle
 10
-2900
 20
2300
 30
0
 40
400
  0
TEXT
  5
1AE
330
1F
100
AcDbEntity
  8
Grid Line
100
AcDbText
 10
-3050.1016902923584
 20
2151.5254237651825
 30
0
 40
300
  1
2
 72
4
 11
-2900
 21
2300
 31
0
  7
Standard
100
AcDbText
 73
2
  0
LINE
  5
1AF
330
1F
100
AcDbEntity
  8
Grid Line
  6
SCCenter
100
AcDbLine
 10
-2900
 20
3050
 30
0
 11
16000
 21
3050
 31
0
  0
CIRCLE
  5
1B0
330
1F
100
AcDbEntity
  8
Grid Line
100
AcDbCircle
 10
-3300
 20
3050
 30
0
 40
400
  0
TEXT
  5
1B1
330
1F
100
AcDbEntity
  8
Grid Line
100
AcDbText
 10
-3450.5084629058838
 20
2901.5254237651825
 30
0
 40
300
  1
3
 72
4
 11
-3300
 21
3050
 31
0
  7
Standard
100
AcDbText
 73
2
  0
LINE
  5
1B2
330
1F
100
AcDbEntity
  8
Grid Line
  6
SCCenter
100
AcDbLine
 10
-2500
 20
3800
 30
0
 11
16000
 21
3800
 31
0
  0
CIRCLE
  5
1B3
330
1F
100
AcDbEntity
  8
Grid Line
100
AcDbCircle
 10
-2900
 20
3800
 30
0
 40
400
  0
TEXT
  5
1B4
330
1F
100
AcDbEntity
  8
Grid Line
100
AcDbText
 10
-3046.644063949585
 20
3650
 30
0
 40
300
  1
4
 72
4
 11
-2900
 21
3800
 31
0
  7
Standard
100
AcDbText
 73
2
  0
LINE
  5
1B5
330
1F
100
AcDbEntity
  8
Grid Line
  6
SCCenter
100
AcDbLine
 10
-3300
 20
4300
 30
0
 11
16000
 21
4300
 31
0
  0
CIRCLE
  5
1B6
330
1F
100
AcDbEntity
  8
Grid Line
100
AcDbCircle
 10
-3700
 20
4300
 30
0
 40
400
  0
TEXT
  5
1B7
330
1F
100
AcDbEntity
  8
Grid Line
100
AcDbText
 10
-3850.1016902923584
 20
4151.5254237651825
 30
0
 40
300
  1
5
 72
4
 11
-3700
 21
4300
 31
0
  7
Standard
100
AcDbText
 73
2
  0
LINE
  5
1B8
330
1F
100
AcDbEntity
  8
Grid Line
  6
SCCenter
100
AcDbLine
 10
-2500
 20
8950
 30
0
 11
16000
 21
8950
 31
0
  0
CIRCLE
  5
1B9
330
1F
100
AcDbEntity
  8
Grid Line
100
AcDbCircle
 10
-2900
 20
8950
 30
0
 40
400
  0
TEXT
  5
1BA
330
1F
100
AcDbEntity
  8
Grid Line
100
AcDbText
 10
-3050.1016902923584
 20
8801.5254237651825
 30
0
 40
300
  1
6
 72
4
 11
-2900
 21
8950
 31
0
  7
Standard
100
AcDbText
 73
2
  0
LINE
  5
1BB
330
1F
100
AcDbEntity
  8
Grid Line
  6
SCCenter
100
AcDbLine
 10
-2500
 20
13450
 30
0
 11
16000
 21
13450
 31
0
  0
CIRCLE
  5
1BC
330
1F
100
AcDbEntity
  8
Grid Line
100
AcDbCircle
 10
-2900
 20
13450
 30
0
 40
400
  0
TEXT
  5
1BD
330
1F
100
AcDbEntity
  8
Grid Line
100
AcDbText
 10
-3052.7457542419434
 20
13300.711864411831
 30
0
 40
300
  1
7
 72
4
 11
-2900
 21
13450
 31
0
  7
Standard
100
AcDbText
 73
2
  0
LINE
  5
1BE
330
1F
100
AcDbEntity
  8
Grid Line
  6
SCCenter
100
AcDbLine
 10
-2500
 20
18100
 30
0
 11
16000
 21
18100
 31
0
  0
CIRCLE
  5
1BF
330
1F
100
AcDbEntity
  8
Grid Line
100
AcDbCircle
 10
-2900
 20
18100
 30
0
 40
400
  0
TEXT
  5
1C0
330
1F
100
AcDbEntity
  8
Grid Line
100
AcDbText
 10
-3050.1016902923584
 20
17951.525423765182
 30
0
 40
300
  1
8
 72
4
 11
-2900
 21
18100
 31
0
  7
Standard
100
AcDbText
 73
2
  0
LINE
  5
1C1
330
1F
100
AcDbEntity
  8
Grid Line
  6
SCCenter
100
AcDbLine
 10
0
 20
-2500
 30
0
 11
0
 21
20600
 31
0
  0
CIRCLE
  5
1C2
330
1F
100
AcDbEntity
  8
Grid Line
100
AcDbCircle
 10
2.4492127076447545E-14
 20
21000
 30
0
 40
400
  0
TEXT
  5
1C3
330
1F
100
AcDbEntity
  8
Grid Line
100
AcDbText
 10
-150.10169029235837
 20
20850
 30
0
 40
300
  1
A
 72
4
 11
2.4492127076447545E-14
 21
21000
 31
0
  7
Standard
100
AcDbText
 73
2
  0
LINE
  5
1C4
330
1F
100
AcDbEntity
  8
Grid Line
  6
SCCenter
100
AcDbLine
 10
4500
 20
-2500
 30
0
 11
4500
 21
20600
 31
0
  0
CIRCLE
  5
1C5
330
1F
100
AcDbEntity
  8
Grid Line
100
AcDbCircle
 10
4500
 20
21000
 30
0
 40
400
  0
TEXT
  5
1C6
330
1F
100
AcDbEntity
  8
Grid Line
100
AcDbText
 10
4348.2711982727051
 20
20851.525423765182
 30
0
 40
300
  1
B
 72
4
 11
4500
 21
21000
 31
0
  7
Standard
100
AcDbText
 73
2
  0
LINE
  5
1C7
330
1F
100
AcDbEntity
  8
Grid Line
  6
SCCenter
100
AcDbLine
 10
5400
 20
-2500
 30
0
 11
5400
 21
20600
 31
0
  0
CIRCLE
  5
1C8
330
1F
100
AcDbEntity
  8
Grid Line
100
AcDbCircle
 10
5400
 20
21000
 30
0
 40
400
  0
TEXT
  5
1C9
330
1F
100
AcDbEntity
  8
Grid Line
100
AcDbText
 10
5250.4067859649658
 20
20851.525423765182
 30
0
 40
300
  1
C
 72
4
 11
5400
 21
21000
 31
0
  7
Standard
100
AcDbText
 73
2
  0
LINE
  5
1CA
330
1F
100
AcDbEntity
  8
Grid Line
  6
SCCenter
100
AcDbLine
 10
8100
 20
-2500
 30
0
 11
8100
 21
20600
 31
0
  0
CIRCLE
  5
1CB
330
1F
100
AcDbEntity
  8
Grid Line
100
AcDbCircle
 10
8100
 20
21000
 30
0
 40
400
  0
TEXT
  5
1CC
330
1F
100
AcDbEntity
  8
Grid Line
100
AcDbText
 10
7948.2711982727051
 20
20851.525423765182
 30
0
 40
300
  1
D
 72
4
 11
8100
 21
21000
 31
0
  7
Standard
100
AcDbText
 73
2
  0
LINE
  5
1CD
330
1F
100
AcDbEntity
  8
Grid Line
  6
SCCenter
100
AcDbLine
 10
8850
 20
-2500
 30
0
 11
8850
 21
21000
 31
0
  0
CIRCLE
  5
1CE
330
1F
100
AcDbEntity
  8
Grid Line
100
AcDbCircle
 10
8850
 20
21400
 30
0
 40
400
  0
TEXT
  5
1CF
330
1F
100
AcDbEntity
  8
Grid Line
100
AcDbText
 10
8701.6271228790283
 20
21251.525423765182
 30
0
 40
300
  1
E
 72
4
 11
8850
 21
21400
 31
0
  7
Standard
100
AcDbText
 73
2
  0
LINE
  5
1D0
330
1F
100
AcDbEntity
  8
Grid Line
  6
SCCenter
100
AcDbLine
 10
9600
 20
-2500
 30
0
 11
9600
 21
20600
 31
0
  0
CIRCLE
  5
1D1
330
1F
100
AcDbEntity
  8
Grid Line
100
AcDbCircle
 10
9600
 20
21000
 30
0
 40
400
  0
TEXT
  5
1D2
330
1F
100
AcDbEntity
  8
Grid Line
100
AcDbText
 10
9451.6271228790283
 20
20850
 30
0
 40
300
  1
F
 72
4
 11
9600
 21
21000
 31
0
  7
Standard
100
AcDbText
 73
2
  0
LINE
  5
1D3
330
1F
100
AcDbEntity
  8
Grid Line
  6
SCCenter
100
AcDbLine
 10
13500
 20
-2500
 30
0
 11
13500
 21
20600
 31
0
  0
CIRCLE
  5
1D4
330
1F
100
AcDbEntity
  8
Grid Line
100
AcDbCircle
 10
13500
 20
21000
 30
0
 40
400
  0
TEXT
  5
1D5
330
1F
100
AcDbEntity
  8
Grid Line
100
AcDbText
 10
13349.898309707642
 20
20851.525423765182
 30
0
 40
300
  1
G
 72
4
 11
13500
 21
21000
 31
0
  7
Standard
100
AcDbText
 73
2
  0
DIMENSION
  5
1D6
330
1F
100
AcDbEntity
  8
Grid Line
100
AcDbDimension
  2
*D0
 10
-2100
 20
2300
 30
0
 11
-2100
 21
1150
 31
0
 12
0
 22
0
 32
0
 70
1
 71
5
 72
0
  1
2300
  3
SCGridlineDim
100
AcDbAlignedDimension
 13
-2100
 23
0
 33
0
 14
-2100
 24
2300
 34
0
  0
DIMENSION
  5
1D7
330
1F
100
AcDbEntity
  8
Grid Line
100
AcDbDimension
  2
*D1
 10
-2100
 20
3800
 30
0
 11
-2100
 21
3050
 31
0
 12
0
 22
0
 32
0
 70
1
 71
5
 72
0
  1
1500
  3
SCGridlineDim
100
AcDbAlignedDimension
 13
-2100
 23
2300
 33
0
 14
-2100
 24
3800
 34
0
  0
DIMENSION
  5
1D8
330
1F
100
AcDbEntity
  8
Grid Line
100
AcDbDimension
  2
*D2
 10
-2100
 20
8950
 30
0
 11
-2100
 21
6375
 31
0
 12
0
 22
0
 32
0
 70
1
 71
5
 72
0
  1
5150
  3
SCGridlineDim
100
AcDbAlignedDimension
 13
-2100
 23
3800
 33
0
 14
-2100
 24
8950
 34
0
  0
DIMENSION
  5
1D9
330
1F
100
AcDbEntity
  8
Grid Line
100
AcDbDimension
  2
*D3
 10
-2100
 20
13450
 30
0
 11
-2100
 21
11200
 31
0
 12
0
 22
0
 32
0
 70
1
 71
5
 72
0
  1
4500
  3
SCGridlineDim
100
AcDbAlignedDimension
 13
-2100
 23
8950
 33
0
 14
-2100
 24
13450
 34
0
  0
DIMENSION
  5
1DA
330
1F
100
AcDbEntity
  8
Grid Line
100
AcDbDimension
  2
*D4
 10
-2100
 20
18100
 30
0
 11
-2100
 21
15775
 31
0
 12
0
 22
0
 32
0
 70
1
 71
5
 72
0
  1
4650
  3
SCGridlineDim
100
AcDbAlignedDimension
 13
-2100
 23
13450
 33
0
 14
-2100
 24
18100
 34
0
  0
DIMENSION
  5
1DB
330
1F
100
AcDbEntity
  8
Grid Line
100
AcDbDimension
  2
*D5
 10
4500
 20
20200
 30
0
 11
2250
 21
20200
 31
0
 12
0
 22
0
 32
0
 70
1
 71
5
 72
0
  1
4500
  3
SCGridlineDim
100
AcDbAlignedDimension
 13
0
 23
20200
 33
0
 14
4500
 24
20200
 34
0
  0
DIMENSION
  5
1DC
330
1F
100
AcDbEntity
  8
Grid Line
100
AcDbDimension
  2
*D6
 10
8100
 20
20200
 30
0
 11
6300
 21
20200
 31
0
 12
0
 22
0
 32
0
 70
1
 71
5
 72
0
  1
3600
  3
SCGridlineDim
100
AcDbAlignedDimension
 13
4500
 23
20200
 33
0
 14
8100
 24
20200
 34
0
  0
DIMENSION
  5
1DD
330
1F
100
AcDbEntity
  8
Grid Line
100
AcDbDimension
  2
*D7
 10
9600
 20
20200
 30
0
 11
8850
 21
20200
 31
0
 12
0
 22
0
 32
0
 70
1
 71
5
 72
0
  1
1500
  3
SCGridlineDim
100
AcDbAlignedDimension
 13
8100
 23
20200
 33
0
 14
9600
 24
20200
 34
0
  0
DIMENSION
  5
1DE
330
1F
100
AcDbEntity
  8
Grid Line
100
AcDbDimension
  2
*D8
 10
13500
 20
20200
 30
0
 11
11550
 21
20200
 31
0
 12
0
 22
0
 32
0
 70
1
 71
5
 72
0
  1
3900
  3
SCGridlineDim
100
AcDbAlignedDimension
 13
9600
 23
20200
 33
0
 14
13500
 24
20200
 34
0
  0
TEXT
  5
1DF
330
1F
100
AcDbEntity
  8
Label
100
AcDbText
 10
0
 20
-4000
 30
0
 40
325
  1
%%u
 72
1
 11
0
 21
-4000
 31
0
  7
SC-BBS1
100
AcDbText
 73
2
  0
ENDSEC
  0
SECTION
  2
OBJECTS
  0
DICTIONARY
  5
C
330
0
100
AcDbDictionary
280
0
281
1
  3
ACAD_SCALELIST
350
258
  3
ACAD_COLOR
350
26A
  3
ACAD_FIELDLIST
350
26B
  3
ACAD_GROUP
350
D
  3
ACAD_IMAGE_DICT
350
26C
  3
ACAD_LAYOUT
350
1A
  3
ACAD_MATERIAL
350
26D
  3
ACAD_MLEADERSTYLE
350
26E
  3
ACAD_MLINESTYLE
350
17
  3
ACAD_PLOTSETTINGS
350
19
  3
ACAD_PLOTSTYLENAME
350
E
  3
ACAD_TABLESTYLE
350
270
  3
ACDB_RECOMPOSE_DATA
350
274
  3
AcDbVariableDictionary
350
275
  3
ACAD_VISUALSTYLE
350
27A
  3
DWGPROPS
350
27B
  0
DICTIONARY
  5
272
330
271
100
AcDbDictionary
280
0
281
1
  3
ACAD_ROUNDTRIP_2008_TABLESTYLE_CELLSTYLEMAP
360
273
  0
DICTIONARY
  5
258
102
{ACAD_REACTORS
330
C
102
}
330
C
100
AcDbDictionary
280
0
281
1
  3
A0
350
259
  3
A1
350
25A
  3
A2
350
25B
  3
A3
350
25C
  3
A4
350
25D
  3
A5
350
25E
  3
A6
350
25F
  3
A7
350
260
  3
A8
350
261
  3
A9
350
262
  3
B0
350
263
  3
B1
350
264
  3
B2
350
265
  3
B3
350
266
  3
B4
350
267
  3
B5
350
268
  3
B6
350
269
  0
DICTIONARY
  5
26A
102
{ACAD_REACTORS
330
C
102
}
330
C
100
AcDbDictionary
280
0
281
1
  0
FIELDLIST
  5
26B
102
{ACAD_REACTORS
330
C
102
}
330
C
100
AcDbIdSet
100
AcDbFieldList
  0
DICTIONARY
  5
D
102
{ACAD_REACTORS
330
C
102
}
330
C
100
AcDbDictionary
280
0
281
1
  0
DICTIONARY
  5
26C
102
{ACAD_REACTORS
330
C
102
}
330
C
100
AcDbDictionary
280
0
281
1
  0
DICTIONARY
  5
1A
102
{ACAD_REACTORS
330
C
102
}
330
C
100
AcDbDictionary
280
0
281
1
  3
Layout1
350
1E
  3
Model
350
22
  0
DICTIONARY
  5
26D
102
{ACAD_REACTORS
330
C
102
}
330
C
100
AcDbDictionary
280
0
281
1
  0
DICTIONARY
  5
26E
102
{ACAD_REACTORS
330
C
102
}
330
C
100
AcDbDictionary
280
0
281
1
  3
Standard
350
26F
  0
DICTIONARY
  5
17
102
{ACAD_REACTORS
330
C
102
}
330
C
100
AcDbDictionary
280
0
281
1
  3
STANDARD
350
18
  0
DICTIONARY
  5
19
102
{ACAD_REACTORS
330
C
102
}
330
C
100
AcDbDictionary
280
0
281
1
  0
ACDBDICTIONARYWDFLT
  5
E
102
{ACAD_REACTORS
330
C
102
}
330
C
100
AcDbDictionary
280
0
281
1
  3
Normal
350
F
100
AcDbDictionaryWithDefault
340
F
  0
ACDBPLACEHOLDER
  5
F
102
{ACAD_REACTORS
330
E
102
}
330
E
  0
DICTIONARY
  5
270
102
{ACAD_REACTORS
330
C
102
}
330
C
100
AcDbDictionary
280
0
281
1
  3
Standard
350
271
  0
XRECORD
  5
274
102
{ACAD_REACTORS
330
C
102
}
330
C
100
AcDbXrecord
280
1
 90
1
330
271
  0
DICTIONARY
  5
275
102
{ACAD_REACTORS
330
C
102
}
330
C
100
AcDbDictionary
280
0
281
1
  3
DIMASSOC
350
276
  3
HIDETEXT
350
277
  3
MSLTSCALE
350
278
  3
PSLTSCALE
350
279
  0
DICTIONARY
  5
27A
102
{ACAD_REACTORS
330
C
102
}
330
C
100
AcDbDictionary
280
0
281
1
  0
XRECORD
  5
27B
102
{ACAD_REACTORS
330
C
102
}
330
C
100
AcDbXrecord
280
0
  1
DWGPROPS COOKIE
  2

  3

  4

  6

  7

  8

  9

300
=
301
=
302
=
303
=
304
=
305
=
306
=
307
=
308
=
309
=
 40
0
 41
2461290.4510605093
 42
2461290.4510605093
  1

 90
0
  0
CELLSTYLEMAP
  5
273
102
{ACAD_REACTORS
330
272
102
}
330
272
100
AcDbCellStyleMap
 90
3
300
CELLSTYLE
  1
TABLEFORMAT_BEGIN
 90
5
170
0
309
TABLEFORMAT_END
  1
CELLSTYLE_BEGIN
 90
3
 91
2
300
_DATA
309
CELLSTYLE_END
300
CELLSTYLE
  1
TABLEFORMAT_BEGIN
 90
5
170
0
309
TABLEFORMAT_END
  1
CELLSTYLE_BEGIN
 90
1
 91
1
300
_TITLE
309
CELLSTYLE_END
300
CELLSTYLE
  1
TABLEFORMAT_BEGIN
 90
5
170
0
309
TABLEFORMAT_END
  1
CELLSTYLE_BEGIN
 90
2
 91
1
300
_HEADER
309
CELLSTYLE_END
  0
SCALE
  5
259
102
{ACAD_REACTORS
330
258
102
}
330
258
100
AcDbScale
 70
0
300
1:1
140
1
141
1
290
1
  0
SCALE
  5
25A
102
{ACAD_REACTORS
330
258
102
}
330
258
100
AcDbScale
 70
0
300
1:2
140
1
141
2
290
0
  0
SCALE
  5
25B
102
{ACAD_REACTORS
330
258
102
}
330
258
100
AcDbScale
 70
0
300
1:4
140
1
141
4
290
0
  0
SCALE
  5
25C
102
{ACAD_REACTORS
330
258
102
}
330
258
100
AcDbScale
 70
0
300
1:5
140
1
141
5
290
0
  0
SCALE
  5
25D
102
{ACAD_REACTORS
330
258
102
}
330
258
100
AcDbScale
 70
0
300
1:8
140
1
141
8
290
0
  0
SCALE
  5
25E
102
{ACAD_REACTORS
330
258
102
}
330
258
100
AcDbScale
 70
0
300
1:10
140
1
141
10
290
0
  0
SCALE
  5
25F
102
{ACAD_REACTORS
330
258
102
}
330
258
100
AcDbScale
 70
0
300
1:16
140
1
141
16
290
0
  0
SCALE
  5
260
102
{ACAD_REACTORS
330
258
102
}
330
258
100
AcDbScale
 70
0
300
1:20
140
1
141
20
290
0
  0
SCALE
  5
261
102
{ACAD_REACTORS
330
258
102
}
330
258
100
AcDbScale
 70
0
300
1:30
140
1
141
30
290
0
  0
SCALE
  5
262
102
{ACAD_REACTORS
330
258
102
}
330
258
100
AcDbScale
 70
0
300
1:40
140
1
141
40
290
0
  0
SCALE
  5
263
102
{ACAD_REACTORS
330
258
102
}
330
258
100
AcDbScale
 70
0
300
1:50
140
1
141
50
290
0
  0
SCALE
  5
264
102
{ACAD_REACTORS
330
258
102
}
330
258
100
AcDbScale
 70
0
300
1:100
140
1
141
100
290
0
  0
SCALE
  5
265
102
{ACAD_REACTORS
330
258
102
}
330
258
100
AcDbScale
 70
0
300
2:1
140
2
141
1
290
0
  0
SCALE
  5
266
102
{ACAD_REACTORS
330
258
102
}
330
258
100
AcDbScale
 70
0
300
4:1
140
4
141
1
290
0
  0
SCALE
  5
267
102
{ACAD_REACTORS
330
258
102
}
330
258
100
AcDbScale
 70
0
300
8:1
140
8
141
1
290
0
  0
SCALE
  5
268
102
{ACAD_REACTORS
330
258
102
}
330
258
100
AcDbScale
 70
0
300
10:1
140
10
141
1
290
0
  0
SCALE
  5
269
102
{ACAD_REACTORS
330
258
102
}
330
258
100
AcDbScale
 70
0
300
100:1
140
100
141
1
290
0
  0
LAYOUT
  5
1E
102
{ACAD_REACTORS
330
1A
102
}
330
1A
100
AcDbPlotSettings
  1

  2
C:\Program Files\AutoCAD 2002\plotters\DWF ePlot (optimized for plotting).pc3
  4

  6

 40
0
 41
0
 42
0
 43
0
 44
0
 45
0
 46
0
 47
0
 48
0
 49
0
140
0
141
0
142
1
143
1
 70
688
 72
1
 73
1
 74
5
  7
acad.stb
 75
16
 76
0
 77
0
 78
0
147
1
148
0
149
0
100
AcDbLayout
  1
Layout1
 70
1
 71
1
 10
0
 20
0
 11
420
 21
297
 12
0
 22
0
 32
0
 14
0
 24
0
 34
0
 15
0
 25
0
 35
0
146
0
 13
0
 23
0
 33
0
 16
1
 26
0
 36
0
 17
0
 27
1
 37
0
 76
0
330
1E0
  0
LAYOUT
  5
22
102
{ACAD_REACTORS
330
1A
102
}
330
1A
100
AcDbPlotSettings
  1

  2
C:\Program Files\AutoCAD 2002\plotters\DWF ePlot (optimized for plotting).pc3
  4

  6

 40
0
 41
0
 42
0
 43
0
 44
0
 45
0
 46
0
 47
0
 48
0
 49
0
140
0
141
0
142
1
143
1
 70
1712
 72
1
 73
1
 74
0
  7
acad.stb
 75
0
 76
0
 77
0
 78
0
147
1
148
0
149
0
100
AcDbLayout
  1
Model
 70
1
 71
0
 10
0
 20
0
 11
12
 21
9
 12
0
 22
0
 32
0
 14
0
 24
0
 34
0
 15
0
 25
0
 35
0
146
0
 13
0
 23
0
 33
0
 16
1
 26
0
 36
0
 17
0
 27
1
 37
0
 76
0
330
1F
  0
MLEADERSTYLE
  5
26F
102
{ACAD_REACTORS
330
26E
102
}
330
26E
100
AcDbMLeaderStyle
170
2
171
1
172
0
 90
2
 40
0
 41
0
173
1
 91
0
340
0
 92
-2
290
1
 42
0.09
292
1
 43
0.36
  3
Standard
341
0
 44
0.18
300

342
0
174
1
178
1
175
1
176
0
 93
0
 45
0.18
292
0
297
0
 46
0
343
0
 94
0
 47
1
 49
1
140
1
293
1
141
0
294
1
177
0
142
1
295
0
296
0
143
0.125
  0
MLINESTYLE
  5
18
102
{ACAD_REACTORS
330
17
102
}
330
17
100
AcDbMlineStyle
  2
STANDARD
 70
0
  3

 51
90
 52
90
 71
2
 49
0.5
 62
0
  6
ByLayer
 49
-0.5
 62
0
  6
ByLayer
  0
TABLESTYLE
  5
271
102
{ACAD_XDICTIONARY
360
272
102
}
102
{ACAD_REACTORS
330
270
102
}
330
270
100
AcDbTableStyle
  3
Standard
 70
0
 71
0
 40
0.06
 41
0.06
280
0
281
0
  7
Standard
140
0.18
170
1
 62
0
283
0
 90
512
 91
0
274
-2
284
1
 64
0
275
-2
285
1
 65
0
276
-2
286
1
 66
0
277
-2
287
1
 67
0
278
-2
288
1
 68
0
279
-2
289
1
 69
0
  7
Standard
140
0.18
170
1
 62
0
283
0
 90
512
 91
0
274
-2
284
1
 64
0
275
-2
285
1
 65
0
276
-2
286
1
 66
0
277
-2
287
1
 67
0
278
-2
288
1
 68
0
279
-2
289
1
 69
0
  7
Standard
140
0.18
170
1
 62
0
283
0
 90
512
 91
0
274
-2
284
1
 64
0
275
-2
285
1
 65
0
276
-2
286
1
 66
0
277
-2
287
1
 67
0
278
-2
288
1
 68
0
279
-2
289
1
 69
0
  0
DICTIONARYVAR
  5
276
102
{ACAD_REACTORS
330
275
102
}
330
275
100
DictionaryVariables
280
0
  1
1
  0
DICTIONARYVAR
  5
277
102
{ACAD_REACTORS
330
275
102
}
330
275
100
DictionaryVariables
280
0
  1
2
  0
DICTIONARYVAR
  5
278
102
{ACAD_REACTORS
330
275
102
}
330
275
100
DictionaryVariables
280
0
  1
0
  0
DICTIONARYVAR
  5
279
102
{ACAD_REACTORS
330
275
102
}
330
275
100
DictionaryVariables
280
0
  1
0
  0
ENDSEC
999
Created By CadLib version 4.0.2023.09141
999
CadLib website: www.woutware.com
  0
EOF
